ISO-10303-21;
HEADER;
FILE_DESCRIPTION(('FreeCAD Model'),'2;1');
FILE_NAME('Open CASCADE Shape Model','2026-02-18T10:30:23',('Author'),(
    ''),'Open CASCADE STEP processor 7.8','FreeCAD','Unknown');
FILE_SCHEMA(('AUTOMOTIVE_DESIGN { 1 0 10303 214 1 1 1 1 }'));
ENDSEC;
DATA;
#1 = APPLICATION_PROTOCOL_DEFINITION('international standard',
  'automotive_design',2000,#2);
#2 = APPLICATION_CONTEXT(
  'core data for automotive mechanical design processes');
#3 = SHAPE_DEFINITION_REPRESENTATION(#4,#10);
#4 = PRODUCT_DEFINITION_SHAPE('','',#5);
#5 = PRODUCT_DEFINITION('design','',#6,#9);
#6 = PRODUCT_DEFINITION_FORMATION('','',#7);
#7 = PRODUCT('Body','Body','',(#8));
#8 = PRODUCT_CONTEXT('',#2,'mechanical');
#9 = PRODUCT_DEFINITION_CONTEXT('part definition',#2,'design');
#10 = ADVANCED_BREP_SHAPE_REPRESENTATION('',(#11,#15),#889);
#11 = AXIS2_PLACEMENT_3D('',#12,#13,#14);
#12 = CARTESIAN_POINT('',(0.,0.,0.));
#13 = DIRECTION('',(0.,0.,1.));
#14 = DIRECTION('',(1.,0.,-0.));
#15 = MANIFOLD_SOLID_BREP('',#16);
#16 = CLOSED_SHELL('',(#17,#59,#103,#174,#218,#342,#366,#388,#412,#437,
    #461,#486,#503,#528,#553,#577,#602,#626,#644,#669,#701,#725,#749,
    #774,#799,#816,#841,#861));
#17 = ADVANCED_FACE('',(#18),#54,.T.);
#18 = FACE_BOUND('',#19,.T.);
#19 = EDGE_LOOP('',(#20,#31,#39,#48));
#20 = ORIENTED_EDGE('',*,*,#21,.F.);
#21 = EDGE_CURVE('',#22,#24,#26,.T.);
#22 = VERTEX_POINT('',#23);
#23 = CARTESIAN_POINT('',(-71.927032,19.807819,2.22044604925E-16));
#24 = VERTEX_POINT('',#25);
#25 = CARTESIAN_POINT('',(-71.927032,16.807819,3.));
#26 = CIRCLE('',#27,3.);
#27 = AXIS2_PLACEMENT_3D('',#28,#29,#30);
#28 = CARTESIAN_POINT('',(-71.927032,19.807819,3.));
#29 = DIRECTION('',(-1.,0.,0.));
#30 = DIRECTION('',(0.,3.552713678801E-15,-1.));
#31 = ORIENTED_EDGE('',*,*,#32,.F.);
#32 = EDGE_CURVE('',#33,#22,#35,.T.);
#33 = VERTEX_POINT('',#34);
#34 = CARTESIAN_POINT('',(73.245972,19.807819,1.480297364078E-16));
#35 = LINE('',#36,#37);
#36 = CARTESIAN_POINT('',(73.245972,19.807819,0.));
#37 = VECTOR('',#38,1.);
#38 = DIRECTION('',(-1.,0.,0.));
#39 = ORIENTED_EDGE('',*,*,#40,.F.);
#40 = EDGE_CURVE('',#41,#33,#43,.T.);
#41 = VERTEX_POINT('',#42);
#42 = CARTESIAN_POINT('',(73.245972,16.807819,3.));
#43 = CIRCLE('',#44,3.);
#44 = AXIS2_PLACEMENT_3D('',#45,#46,#47);
#45 = CARTESIAN_POINT('',(73.245972,19.807819,3.));
#46 = DIRECTION('',(1.,0.,0.));
#47 = DIRECTION('',(0.,-1.,-2.960594732334E-16));
#48 = ORIENTED_EDGE('',*,*,#49,.F.);
#49 = EDGE_CURVE('',#24,#41,#50,.T.);
#50 = LINE('',#51,#52);
#51 = CARTESIAN_POINT('',(73.245972,16.807819,3.));
#52 = VECTOR('',#53,1.);
#53 = DIRECTION('',(1.,0.,0.));
#54 = CYLINDRICAL_SURFACE('',#55,3.);
#55 = AXIS2_PLACEMENT_3D('',#56,#57,#58);
#56 = CARTESIAN_POINT('',(73.245972,19.807819,3.));
#57 = DIRECTION('',(-1.,0.,0.));
#58 = DIRECTION('',(0.,0.,-1.));
#59 = ADVANCED_FACE('',(#60),#84,.F.);
#60 = FACE_BOUND('',#61,.F.);
#61 = EDGE_LOOP('',(#62,#63,#70,#79));
#62 = ORIENTED_EDGE('',*,*,#21,.F.);
#63 = ORIENTED_EDGE('',*,*,#64,.T.);
#64 = EDGE_CURVE('',#22,#65,#67,.T.);
#65 = VERTEX_POINT('',#66);
#66 = CARTESIAN_POINT('',(-71.927032,19.807819,2.));
#67 = B_SPLINE_CURVE_WITH_KNOTS('',1,(#68,#69),.UNSPECIFIED.,.F.,.F.,(2,
    2),(0.,1.),.PIECEWISE_BEZIER_KNOTS.);
#68 = CARTESIAN_POINT('',(-71.927032,19.807819,1.554312234475E-15));
#69 = CARTESIAN_POINT('',(-71.927032,19.807819,2.));
#70 = ORIENTED_EDGE('',*,*,#71,.T.);
#71 = EDGE_CURVE('',#65,#72,#74,.T.);
#72 = VERTEX_POINT('',#73);
#73 = CARTESIAN_POINT('',(-71.927032,18.807819,3.));
#74 = CIRCLE('',#75,1.);
#75 = AXIS2_PLACEMENT_3D('',#76,#77,#78);
#76 = CARTESIAN_POINT('',(-71.927032,19.807819,3.));
#77 = DIRECTION('',(-1.,0.,0.));
#78 = DIRECTION('',(0.,0.,-1.));
#79 = ORIENTED_EDGE('',*,*,#80,.F.);
#80 = EDGE_CURVE('',#24,#72,#81,.T.);
#81 = B_SPLINE_CURVE_WITH_KNOTS('',1,(#82,#83),.UNSPECIFIED.,.F.,.F.,(2,
    2),(0.,1.),.PIECEWISE_BEZIER_KNOTS.);
#82 = CARTESIAN_POINT('',(-71.927032,16.807819,3.));
#83 = CARTESIAN_POINT('',(-71.927032,18.807819,3.));
#84 = B_SPLINE_SURFACE_WITH_KNOTS('',8,1,(
    (#85,#86)
    ,(#87,#88)
    ,(#89,#90)
    ,(#91,#92)
    ,(#93,#94)
    ,(#95,#96)
    ,(#97,#98)
    ,(#99,#100)
    ,(#101,#102
    )),.UNSPECIFIED.,.F.,.F.,.F.,(9,9),(2,2),(4.712388980385,
    6.28318530718),(0.,1.),.PIECEWISE_BEZIER_KNOTS.);
#85 = CARTESIAN_POINT('',(-71.927032,16.807819,3.));
#86 = CARTESIAN_POINT('',(-71.927032,18.807819,3.));
#87 = CARTESIAN_POINT('',(-71.927032,16.807819,2.410951377452));
#88 = CARTESIAN_POINT('',(-71.927032,18.807819,2.803650459151));
#89 = CARTESIAN_POINT('',(-71.927032,16.940001366883,1.821902569487));
#90 = CARTESIAN_POINT('',(-71.927032,18.851880664914,2.607301732448));
#91 = CARTESIAN_POINT('',(-71.927032,17.204364802386,1.267460296995));
#92 = CARTESIAN_POINT('',(-71.92703199999,18.93999813108,2.422483962617)
  );
#93 = CARTESIAN_POINT('',(-71.927032,17.59004273266,0.78222373266));
#94 = CARTESIAN_POINT('',(-71.927032,19.068564168487,2.260745168487));
#95 = CARTESIAN_POINT('',(-71.927032,18.075279296995,0.396545802386));
#96 = CARTESIAN_POINT('',(-71.927032,19.230302962617,2.132179131081));
#97 = CARTESIAN_POINT('',(-71.927032,18.629721569487,0.132182366884));
#98 = CARTESIAN_POINT('',(-71.927032,19.415120732448,2.044061664914));
#99 = CARTESIAN_POINT('',(-71.927032,19.218770377452,-2.075971439486E-15
    ));
#100 = CARTESIAN_POINT('',(-71.927032,19.611469459151,2.));
#101 = CARTESIAN_POINT('',(-71.927032,19.807819,1.554312234475E-15));
#102 = CARTESIAN_POINT('',(-71.927032,19.807819,2.));
#103 = ADVANCED_FACE('',(#104,#147,#158),#169,.F.);
#104 = FACE_BOUND('',#105,.F.);
#105 = EDGE_LOOP('',(#106,#117,#123,#124,#132,#141));
#106 = ORIENTED_EDGE('',*,*,#107,.T.);
#107 = EDGE_CURVE('',#108,#110,#112,.T.);
#108 = VERTEX_POINT('',#109);
#109 = CARTESIAN_POINT('',(-65.053724,52.,0.));
#110 = VERTEX_POINT('',#111);
#111 = CARTESIAN_POINT('',(-71.927032,45.126692,0.));
#112 = CIRCLE('',#113,6.873308);
#113 = AXIS2_PLACEMENT_3D('',#114,#115,#116);
#114 = CARTESIAN_POINT('',(-65.053724,45.126692,0.));
#115 = DIRECTION('',(0.,0.,1.));
#116 = DIRECTION('',(1.,0.,0.));
#117 = ORIENTED_EDGE('',*,*,#118,.T.);
#118 = EDGE_CURVE('',#110,#22,#119,.T.);
#119 = LINE('',#120,#121);
#120 = CARTESIAN_POINT('',(-71.927032,45.126692,0.));
#121 = VECTOR('',#122,1.);
#122 = DIRECTION('',(0.,-1.,0.));
#123 = ORIENTED_EDGE('',*,*,#32,.F.);
#124 = ORIENTED_EDGE('',*,*,#125,.T.);
#125 = EDGE_CURVE('',#33,#126,#128,.T.);
#126 = VERTEX_POINT('',#127);
#127 = CARTESIAN_POINT('',(73.245972,44.638687,0.));
#128 = LINE('',#129,#130);
#129 = CARTESIAN_POINT('',(73.245972,-70.316315,0.));
#130 = VECTOR('',#131,1.);
#131 = DIRECTION('',(0.,1.,0.));
#132 = ORIENTED_EDGE('',*,*,#133,.T.);
#133 = EDGE_CURVE('',#126,#134,#136,.T.);
#134 = VERTEX_POINT('',#135);
#135 = CARTESIAN_POINT('',(65.884659,52.,0.));
#136 = CIRCLE('',#137,7.361313);
#137 = AXIS2_PLACEMENT_3D('',#138,#139,#140);
#138 = CARTESIAN_POINT('',(65.884659,44.638687,0.));
#139 = DIRECTION('',(0.,0.,1.));
#140 = DIRECTION('',(1.,0.,0.));
#141 = ORIENTED_EDGE('',*,*,#142,.T.);
#142 = EDGE_CURVE('',#134,#108,#143,.T.);
#143 = LINE('',#144,#145);
#144 = CARTESIAN_POINT('',(65.884659,52.,0.));
#145 = VECTOR('',#146,1.);
#146 = DIRECTION('',(-1.,0.,0.));
#147 = FACE_BOUND('',#148,.F.);
#148 = EDGE_LOOP('',(#149));
#149 = ORIENTED_EDGE('',*,*,#150,.F.);
#150 = EDGE_CURVE('',#151,#151,#153,.T.);
#151 = VERTEX_POINT('',#152);
#152 = CARTESIAN_POINT('',(-49.25,36.889799,0.));
#153 = CIRCLE('',#154,3.25);
#154 = AXIS2_PLACEMENT_3D('',#155,#156,#157);
#155 = CARTESIAN_POINT('',(-52.5,36.889799,0.));
#156 = DIRECTION('',(0.,0.,1.));
#157 = DIRECTION('',(1.,0.,0.));
#158 = FACE_BOUND('',#159,.F.);
#159 = EDGE_LOOP('',(#160));
#160 = ORIENTED_EDGE('',*,*,#161,.F.);
#161 = EDGE_CURVE('',#162,#162,#164,.T.);
#162 = VERTEX_POINT('',#163);
#163 = CARTESIAN_POINT('',(55.75,36.889799,0.));
#164 = CIRCLE('',#165,3.25);
#165 = AXIS2_PLACEMENT_3D('',#166,#167,#168);
#166 = CARTESIAN_POINT('',(52.5,36.889799,0.));
#167 = DIRECTION('',(0.,0.,1.));
#168 = DIRECTION('',(1.,0.,0.));
#169 = PLANE('',#170);
#170 = AXIS2_PLACEMENT_3D('',#171,#172,#173);
#171 = CARTESIAN_POINT('',(0.306131718836,-16.97710427905,0.));
#172 = DIRECTION('',(0.,0.,1.));
#173 = DIRECTION('',(1.,0.,0.));
#174 = ADVANCED_FACE('',(#175),#199,.F.);
#175 = FACE_BOUND('',#176,.F.);
#176 = EDGE_LOOP('',(#177,#178,#185,#194));
#177 = ORIENTED_EDGE('',*,*,#40,.F.);
#178 = ORIENTED_EDGE('',*,*,#179,.T.);
#179 = EDGE_CURVE('',#41,#180,#182,.T.);
#180 = VERTEX_POINT('',#181);
#181 = CARTESIAN_POINT('',(73.245972,18.807819,3.));
#182 = B_SPLINE_CURVE_WITH_KNOTS('',1,(#183,#184),.UNSPECIFIED.,.F.,.F.,
  (2,2),(0.,1.),.PIECEWISE_BEZIER_KNOTS.);
#183 = CARTESIAN_POINT('',(73.245972,16.807819,3.));
#184 = CARTESIAN_POINT('',(73.245972,18.807819,3.));
#185 = ORIENTED_EDGE('',*,*,#186,.T.);
#186 = EDGE_CURVE('',#180,#187,#189,.T.);
#187 = VERTEX_POINT('',#188);
#188 = CARTESIAN_POINT('',(73.245972,19.807819,2.));
#189 = CIRCLE('',#190,1.);
#190 = AXIS2_PLACEMENT_3D('',#191,#192,#193);
#191 = CARTESIAN_POINT('',(73.245972,19.807819,3.));
#192 = DIRECTION('',(1.,0.,0.));
#193 = DIRECTION('',(0.,-1.,-1.110223024625E-16));
#194 = ORIENTED_EDGE('',*,*,#195,.F.);
#195 = EDGE_CURVE('',#33,#187,#196,.T.);
#196 = B_SPLINE_CURVE_WITH_KNOTS('',1,(#197,#198),.UNSPECIFIED.,.F.,.F.,
  (2,2),(0.,1.),.PIECEWISE_BEZIER_KNOTS.);
#197 = CARTESIAN_POINT('',(73.245972,19.807819,4.440892092234E-16));
#198 = CARTESIAN_POINT('',(73.245972,19.807819,2.));
#199 = B_SPLINE_SURFACE_WITH_KNOTS('',8,1,(
    (#200,#201)
    ,(#202,#203)
    ,(#204,#205)
    ,(#206,#207)
    ,(#208,#209)
    ,(#210,#211)
    ,(#212,#213)
    ,(#214,#215)
    ,(#216,#217
    )),.UNSPECIFIED.,.F.,.F.,.F.,(9,9),(2,2),(4.712388980385,
    6.28318530718),(0.,1.),.PIECEWISE_BEZIER_KNOTS.);
#200 = CARTESIAN_POINT('',(73.245972,19.807819,8.277649810932E-16));
#201 = CARTESIAN_POINT('',(73.245972,19.807819,2.));
#202 = CARTESIAN_POINT('',(73.245971999999,19.218770377452,
    -1.789667987299E-15));
#203 = CARTESIAN_POINT('',(73.245972000001,19.611469459151,2.));
#204 = CARTESIAN_POINT('',(73.245972000004,18.629721569488,
    0.132182366884));
#205 = CARTESIAN_POINT('',(73.245971999999,19.415120732448,
    2.044061664914));
#206 = CARTESIAN_POINT('',(73.245971999993,18.075279296993,
    0.396545802386));
#207 = CARTESIAN_POINT('',(73.245972000001,19.230302962617,
    2.132179131081));
#208 = CARTESIAN_POINT('',(73.245972000008,17.590042732662,0.78222373266
    ));
#209 = CARTESIAN_POINT('',(73.245972,19.068564168488,2.260745168487));
#210 = CARTESIAN_POINT('',(73.245971999994,17.204364802385,
    1.267460296995));
#211 = CARTESIAN_POINT('',(73.245971999999,18.93999813108,2.422483962617
    ));
#212 = CARTESIAN_POINT('',(73.245972000003,16.940001366884,
    1.821902569487));
#213 = CARTESIAN_POINT('',(73.245972000001,18.851880664914,
    2.607301732448));
#214 = CARTESIAN_POINT('',(73.245971999999,16.807819,2.410951377452));
#215 = CARTESIAN_POINT('',(73.245972,18.807819,2.803650459151));
#216 = CARTESIAN_POINT('',(73.245972,16.807819,3.));
#217 = CARTESIAN_POINT('',(73.245972,18.807819,3.));
#218 = ADVANCED_FACE('',(#219,#262,#273,#326),#337,.F.);
#219 = FACE_BOUND('',#220,.F.);
#220 = EDGE_LOOP('',(#221,#222,#230,#239,#247,#256));
#221 = ORIENTED_EDGE('',*,*,#49,.F.);
#222 = ORIENTED_EDGE('',*,*,#223,.T.);
#223 = EDGE_CURVE('',#24,#224,#226,.T.);
#224 = VERTEX_POINT('',#225);
#225 = CARTESIAN_POINT('',(-71.927032,16.807819,93.511329));
#226 = LINE('',#227,#228);
#227 = CARTESIAN_POINT('',(-71.927032,16.807819,-24.318873));
#228 = VECTOR('',#229,1.);
#229 = DIRECTION('',(0.,-1.110223024625E-16,1.));
#230 = ORIENTED_EDGE('',*,*,#231,.T.);
#231 = EDGE_CURVE('',#224,#232,#234,.T.);
#232 = VERTEX_POINT('',#233);
#233 = CARTESIAN_POINT('',(-64.926494,16.807819,100.511867));
#234 = CIRCLE('',#235,7.000538);
#235 = AXIS2_PLACEMENT_3D('',#236,#237,#238);
#236 = CARTESIAN_POINT('',(-64.926494,16.807819,93.511329));
#237 = DIRECTION('',(-0.,1.,1.110223024625E-16));
#238 = DIRECTION('',(1.,0.,0.));
#239 = ORIENTED_EDGE('',*,*,#240,.T.);
#240 = EDGE_CURVE('',#232,#241,#243,.T.);
#241 = VERTEX_POINT('',#242);
#242 = CARTESIAN_POINT('',(63.858239,16.807819,100.511867));
#243 = LINE('',#244,#245);
#244 = CARTESIAN_POINT('',(-64.926494,16.807819,100.511867));
#245 = VECTOR('',#246,1.);
#246 = DIRECTION('',(1.,0.,0.));
#247 = ORIENTED_EDGE('',*,*,#248,.T.);
#248 = EDGE_CURVE('',#241,#249,#251,.T.);
#249 = VERTEX_POINT('',#250);
#250 = CARTESIAN_POINT('',(73.245972,16.807819,91.124134));
#251 = CIRCLE('',#252,9.387733);
#252 = AXIS2_PLACEMENT_3D('',#253,#254,#255);
#253 = CARTESIAN_POINT('',(63.858239,16.807819,91.124134));
#254 = DIRECTION('',(-0.,1.,1.110223024625E-16));
#255 = DIRECTION('',(1.,0.,0.));
#256 = ORIENTED_EDGE('',*,*,#257,.T.);
#257 = EDGE_CURVE('',#249,#41,#258,.T.);
#258 = LINE('',#259,#260);
#259 = CARTESIAN_POINT('',(73.245972,16.807819,91.124134));
#260 = VECTOR('',#261,1.);
#261 = DIRECTION('',(0.,1.110223024625E-16,-1.));
#262 = FACE_BOUND('',#263,.F.);
#263 = EDGE_LOOP('',(#264));
#264 = ORIENTED_EDGE('',*,*,#265,.F.);
#265 = EDGE_CURVE('',#266,#266,#268,.T.);
#266 = VERTEX_POINT('',#267);
#267 = CARTESIAN_POINT('',(-46.695305,16.807819,59.143699));
#268 = CIRCLE('',#269,3.25);
#269 = AXIS2_PLACEMENT_3D('',#270,#271,#272);
#270 = CARTESIAN_POINT('',(-49.945305,16.807819,59.143699));
#271 = DIRECTION('',(-0.,1.,1.110223024625E-16));
#272 = DIRECTION('',(1.,0.,0.));
#273 = FACE_BOUND('',#274,.F.);
#274 = EDGE_LOOP('',(#275,#286,#294,#303,#311,#320));
#275 = ORIENTED_EDGE('',*,*,#276,.F.);
#276 = EDGE_CURVE('',#277,#279,#281,.T.);
#277 = VERTEX_POINT('',#278);
#278 = CARTESIAN_POINT('',(-24.57826513146,16.807819,33.293331080952));
#279 = VERTEX_POINT('',#280);
#280 = CARTESIAN_POINT('',(24.021179452165,16.807819,32.74245430405));
#281 = CIRCLE('',#282,35.539737625494);
#282 = AXIS2_PLACEMENT_3D('',#283,#284,#285);
#283 = CARTESIAN_POINT('',(1.538995921725E-02,16.807819,58.94922864408)
  );
#284 = DIRECTION('',(-0.,1.,1.110223024625E-16));
#285 = DIRECTION('',(1.,0.,0.));
#286 = ORIENTED_EDGE('',*,*,#287,.F.);
#287 = EDGE_CURVE('',#288,#277,#290,.T.);
#288 = VERTEX_POINT('',#289);
#289 = CARTESIAN_POINT('',(-24.57826513146,16.807819,21.332619980574));
#290 = LINE('',#291,#292);
#291 = CARTESIAN_POINT('',(-24.57826513146,16.807819,21.332619980574));
#292 = VECTOR('',#293,1.);
#293 = DIRECTION('',(0.,-1.110223024625E-16,1.));
#294 = ORIENTED_EDGE('',*,*,#295,.F.);
#295 = EDGE_CURVE('',#296,#288,#298,.T.);
#296 = VERTEX_POINT('',#297);
#297 = CARTESIAN_POINT('',(-16.77372713146,16.807819,13.528081980574));
#298 = CIRCLE('',#299,7.804538);
#299 = AXIS2_PLACEMENT_3D('',#300,#301,#302);
#300 = CARTESIAN_POINT('',(-16.77372713146,16.807819,21.332619980574));
#301 = DIRECTION('',(-0.,1.,1.110223024625E-16));
#302 = DIRECTION('',(1.,0.,0.));
#303 = ORIENTED_EDGE('',*,*,#304,.F.);
#304 = EDGE_CURVE('',#305,#296,#307,.T.);
#305 = VERTEX_POINT('',#306);
#306 = CARTESIAN_POINT('',(17.606062452165,16.807819,13.528081980574));
#307 = LINE('',#308,#309);
#308 = CARTESIAN_POINT('',(17.606062452165,16.807819,13.528081980574));
#309 = VECTOR('',#310,1.);
#310 = DIRECTION('',(-1.,0.,0.));
#311 = ORIENTED_EDGE('',*,*,#312,.F.);
#312 = EDGE_CURVE('',#313,#305,#315,.T.);
#313 = VERTEX_POINT('',#314);
#314 = CARTESIAN_POINT('',(24.021179452165,16.807819,19.943198980574));
#315 = CIRCLE('',#316,6.415117);
#316 = AXIS2_PLACEMENT_3D('',#317,#318,#319);
#317 = CARTESIAN_POINT('',(17.606062452165,16.807819,19.943198980574));
#318 = DIRECTION('',(-0.,1.,1.110223024625E-16));
#319 = DIRECTION('',(1.,0.,0.));
#320 = ORIENTED_EDGE('',*,*,#321,.F.);
#321 = EDGE_CURVE('',#279,#313,#322,.T.);
#322 = LINE('',#323,#324);
#323 = CARTESIAN_POINT('',(24.021179452165,16.807819,32.74245430405));
#324 = VECTOR('',#325,1.);
#325 = DIRECTION('',(0.,1.110223024625E-16,-1.));
#326 = FACE_BOUND('',#327,.F.);
#327 = EDGE_LOOP('',(#328));
#328 = ORIENTED_EDGE('',*,*,#329,.F.);
#329 = EDGE_CURVE('',#330,#330,#332,.T.);
#330 = VERTEX_POINT('',#331);
#331 = CARTESIAN_POINT('',(53.304695,16.807819,59.143699));
#332 = CIRCLE('',#333,3.25);
#333 = AXIS2_PLACEMENT_3D('',#334,#335,#336);
#334 = CARTESIAN_POINT('',(50.054695,16.807819,59.143699));
#335 = DIRECTION('',(-0.,1.,1.110223024625E-16));
#336 = DIRECTION('',(1.,0.,0.));
#337 = PLANE('',#338);
#338 = AXIS2_PLACEMENT_3D('',#339,#340,#341);
#339 = CARTESIAN_POINT('',(0.306131718836,16.807819,37.784923279052));
#340 = DIRECTION('',(0.,1.,1.110223024625E-16));
#341 = DIRECTION('',(1.,0.,0.));
#342 = ADVANCED_FACE('',(#343),#361,.F.);
#343 = FACE_BOUND('',#344,.F.);
#344 = EDGE_LOOP('',(#345,#346,#354,#360));
#345 = ORIENTED_EDGE('',*,*,#118,.F.);
#346 = ORIENTED_EDGE('',*,*,#347,.T.);
#347 = EDGE_CURVE('',#110,#348,#350,.T.);
#348 = VERTEX_POINT('',#349);
#349 = CARTESIAN_POINT('',(-71.927032,45.126692,2.));
#350 = LINE('',#351,#352);
#351 = CARTESIAN_POINT('',(-71.927032,45.126692,0.));
#352 = VECTOR('',#353,1.);
#353 = DIRECTION('',(0.,0.,1.));
#354 = ORIENTED_EDGE('',*,*,#355,.T.);
#355 = EDGE_CURVE('',#348,#65,#356,.T.);
#356 = LINE('',#357,#358);
#357 = CARTESIAN_POINT('',(-71.927032,45.126692,2.));
#358 = VECTOR('',#359,1.);
#359 = DIRECTION('',(0.,-1.,0.));
#360 = ORIENTED_EDGE('',*,*,#64,.F.);
#361 = PLANE('',#362);
#362 = AXIS2_PLACEMENT_3D('',#363,#364,#365);
#363 = CARTESIAN_POINT('',(-71.927032,45.126692,0.));
#364 = DIRECTION('',(1.,0.,0.));
#365 = DIRECTION('',(0.,-1.,0.));
#366 = ADVANCED_FACE('',(#367),#383,.F.);
#367 = FACE_BOUND('',#368,.F.);
#368 = EDGE_LOOP('',(#369,#370,#376,#377));
#369 = ORIENTED_EDGE('',*,*,#71,.F.);
#370 = ORIENTED_EDGE('',*,*,#371,.F.);
#371 = EDGE_CURVE('',#187,#65,#372,.T.);
#372 = LINE('',#373,#374);
#373 = CARTESIAN_POINT('',(73.245972,19.807819,2.));
#374 = VECTOR('',#375,1.);
#375 = DIRECTION('',(-1.,0.,0.));
#376 = ORIENTED_EDGE('',*,*,#186,.F.);
#377 = ORIENTED_EDGE('',*,*,#378,.F.);
#378 = EDGE_CURVE('',#72,#180,#379,.T.);
#379 = LINE('',#380,#381);
#380 = CARTESIAN_POINT('',(73.245972,18.807819,3.));
#381 = VECTOR('',#382,1.);
#382 = DIRECTION('',(1.,0.,0.));
#383 = CYLINDRICAL_SURFACE('',#384,1.);
#384 = AXIS2_PLACEMENT_3D('',#385,#386,#387);
#385 = CARTESIAN_POINT('',(73.245972,19.807819,3.));
#386 = DIRECTION('',(-1.,0.,0.));
#387 = DIRECTION('',(0.,0.,-1.));
#388 = ADVANCED_FACE('',(#389),#407,.F.);
#389 = FACE_BOUND('',#390,.F.);
#390 = EDGE_LOOP('',(#391,#392,#393,#401));
#391 = ORIENTED_EDGE('',*,*,#223,.F.);
#392 = ORIENTED_EDGE('',*,*,#80,.T.);
#393 = ORIENTED_EDGE('',*,*,#394,.T.);
#394 = EDGE_CURVE('',#72,#395,#397,.T.);
#395 = VERTEX_POINT('',#396);
#396 = CARTESIAN_POINT('',(-71.927032,18.807819,93.511329));
#397 = LINE('',#398,#399);
#398 = CARTESIAN_POINT('',(-71.927032,18.807819,-24.318873));
#399 = VECTOR('',#400,1.);
#400 = DIRECTION('',(0.,-1.110223024625E-16,1.));
#401 = ORIENTED_EDGE('',*,*,#402,.F.);
#402 = EDGE_CURVE('',#224,#395,#403,.T.);
#403 = LINE('',#404,#405);
#404 = CARTESIAN_POINT('',(-71.927032,16.807819,93.511329));
#405 = VECTOR('',#406,1.);
#406 = DIRECTION('',(0.,1.,1.110223024625E-16));
#407 = PLANE('',#408);
#408 = AXIS2_PLACEMENT_3D('',#409,#410,#411);
#409 = CARTESIAN_POINT('',(-71.927032,16.807819,-24.318873));
#410 = DIRECTION('',(1.,0.,0.));
#411 = DIRECTION('',(0.,-1.110223024625E-16,1.));
#412 = ADVANCED_FACE('',(#413),#432,.T.);
#413 = FACE_BOUND('',#414,.F.);
#414 = EDGE_LOOP('',(#415,#423,#430,#431));
#415 = ORIENTED_EDGE('',*,*,#416,.T.);
#416 = EDGE_CURVE('',#108,#417,#419,.T.);
#417 = VERTEX_POINT('',#418);
#418 = CARTESIAN_POINT('',(-65.053724,52.,2.));
#419 = LINE('',#420,#421);
#420 = CARTESIAN_POINT('',(-65.053724,52.,0.));
#421 = VECTOR('',#422,1.);
#422 = DIRECTION('',(0.,0.,1.));
#423 = ORIENTED_EDGE('',*,*,#424,.T.);
#424 = EDGE_CURVE('',#417,#348,#425,.T.);
#425 = CIRCLE('',#426,6.873308);
#426 = AXIS2_PLACEMENT_3D('',#427,#428,#429);
#427 = CARTESIAN_POINT('',(-65.053724,45.126692,2.));
#428 = DIRECTION('',(0.,0.,1.));
#429 = DIRECTION('',(1.,0.,0.));
#430 = ORIENTED_EDGE('',*,*,#347,.F.);
#431 = ORIENTED_EDGE('',*,*,#107,.F.);
#432 = CYLINDRICAL_SURFACE('',#433,6.873308);
#433 = AXIS2_PLACEMENT_3D('',#434,#435,#436);
#434 = CARTESIAN_POINT('',(-65.053724,45.126692,0.));
#435 = DIRECTION('',(-0.,-0.,-1.));
#436 = DIRECTION('',(1.,0.,0.));
#437 = ADVANCED_FACE('',(#438),#456,.F.);
#438 = FACE_BOUND('',#439,.F.);
#439 = EDGE_LOOP('',(#440,#448,#454,#455));
#440 = ORIENTED_EDGE('',*,*,#441,.T.);
#441 = EDGE_CURVE('',#134,#442,#444,.T.);
#442 = VERTEX_POINT('',#443);
#443 = CARTESIAN_POINT('',(65.884659,52.,2.));
#444 = LINE('',#445,#446);
#445 = CARTESIAN_POINT('',(65.884659,52.,0.));
#446 = VECTOR('',#447,1.);
#447 = DIRECTION('',(0.,0.,1.));
#448 = ORIENTED_EDGE('',*,*,#449,.T.);
#449 = EDGE_CURVE('',#442,#417,#450,.T.);
#450 = LINE('',#451,#452);
#451 = CARTESIAN_POINT('',(65.884659,52.,2.));
#452 = VECTOR('',#453,1.);
#453 = DIRECTION('',(-1.,0.,0.));
#454 = ORIENTED_EDGE('',*,*,#416,.F.);
#455 = ORIENTED_EDGE('',*,*,#142,.F.);
#456 = PLANE('',#457);
#457 = AXIS2_PLACEMENT_3D('',#458,#459,#460);
#458 = CARTESIAN_POINT('',(65.884659,52.,0.));
#459 = DIRECTION('',(0.,-1.,0.));
#460 = DIRECTION('',(-1.,0.,0.));
#461 = ADVANCED_FACE('',(#462),#481,.T.);
#462 = FACE_BOUND('',#463,.F.);
#463 = EDGE_LOOP('',(#464,#472,#479,#480));
#464 = ORIENTED_EDGE('',*,*,#465,.T.);
#465 = EDGE_CURVE('',#126,#466,#468,.T.);
#466 = VERTEX_POINT('',#467);
#467 = CARTESIAN_POINT('',(73.245972,44.638687,2.));
#468 = LINE('',#469,#470);
#469 = CARTESIAN_POINT('',(73.245972,44.638687,0.));
#470 = VECTOR('',#471,1.);
#471 = DIRECTION('',(0.,0.,1.));
#472 = ORIENTED_EDGE('',*,*,#473,.T.);
#473 = EDGE_CURVE('',#466,#442,#474,.T.);
#474 = CIRCLE('',#475,7.361313);
#475 = AXIS2_PLACEMENT_3D('',#476,#477,#478);
#476 = CARTESIAN_POINT('',(65.884659,44.638687,2.));
#477 = DIRECTION('',(0.,0.,1.));
#478 = DIRECTION('',(1.,0.,0.));
#479 = ORIENTED_EDGE('',*,*,#441,.F.);
#480 = ORIENTED_EDGE('',*,*,#133,.F.);
#481 = CYLINDRICAL_SURFACE('',#482,7.361313);
#482 = AXIS2_PLACEMENT_3D('',#483,#484,#485);
#483 = CARTESIAN_POINT('',(65.884659,44.638687,0.));
#484 = DIRECTION('',(-0.,-0.,-1.));
#485 = DIRECTION('',(1.,0.,0.));
#486 = ADVANCED_FACE('',(#487),#498,.F.);
#487 = FACE_BOUND('',#488,.F.);
#488 = EDGE_LOOP('',(#489,#490,#491,#497));
#489 = ORIENTED_EDGE('',*,*,#125,.F.);
#490 = ORIENTED_EDGE('',*,*,#195,.T.);
#491 = ORIENTED_EDGE('',*,*,#492,.T.);
#492 = EDGE_CURVE('',#187,#466,#493,.T.);
#493 = LINE('',#494,#495);
#494 = CARTESIAN_POINT('',(73.245972,-70.316315,2.));
#495 = VECTOR('',#496,1.);
#496 = DIRECTION('',(0.,1.,0.));
#497 = ORIENTED_EDGE('',*,*,#465,.F.);
#498 = PLANE('',#499);
#499 = AXIS2_PLACEMENT_3D('',#500,#501,#502);
#500 = CARTESIAN_POINT('',(73.245972,-70.316315,0.));
#501 = DIRECTION('',(-1.,0.,0.));
#502 = DIRECTION('',(0.,1.,0.));
#503 = ADVANCED_FACE('',(#504),#523,.F.);
#504 = FACE_BOUND('',#505,.T.);
#505 = EDGE_LOOP('',(#506,#514,#521,#522));
#506 = ORIENTED_EDGE('',*,*,#507,.T.);
#507 = EDGE_CURVE('',#151,#508,#510,.T.);
#508 = VERTEX_POINT('',#509);
#509 = CARTESIAN_POINT('',(-49.25,36.889799,2.));
#510 = LINE('',#511,#512);
#511 = CARTESIAN_POINT('',(-49.25,36.889799,0.));
#512 = VECTOR('',#513,1.);
#513 = DIRECTION('',(0.,0.,1.));
#514 = ORIENTED_EDGE('',*,*,#515,.T.);
#515 = EDGE_CURVE('',#508,#508,#516,.T.);
#516 = CIRCLE('',#517,3.25);
#517 = AXIS2_PLACEMENT_3D('',#518,#519,#520);
#518 = CARTESIAN_POINT('',(-52.5,36.889799,2.));
#519 = DIRECTION('',(0.,0.,1.));
#520 = DIRECTION('',(1.,0.,0.));
#521 = ORIENTED_EDGE('',*,*,#507,.F.);
#522 = ORIENTED_EDGE('',*,*,#150,.F.);
#523 = CYLINDRICAL_SURFACE('',#524,3.25);
#524 = AXIS2_PLACEMENT_3D('',#525,#526,#527);
#525 = CARTESIAN_POINT('',(-52.5,36.889799,0.));
#526 = DIRECTION('',(-0.,-0.,-1.));
#527 = DIRECTION('',(1.,0.,0.));
#528 = ADVANCED_FACE('',(#529),#548,.F.);
#529 = FACE_BOUND('',#530,.T.);
#530 = EDGE_LOOP('',(#531,#539,#546,#547));
#531 = ORIENTED_EDGE('',*,*,#532,.T.);
#532 = EDGE_CURVE('',#162,#533,#535,.T.);
#533 = VERTEX_POINT('',#534);
#534 = CARTESIAN_POINT('',(55.75,36.889799,2.));
#535 = LINE('',#536,#537);
#536 = CARTESIAN_POINT('',(55.75,36.889799,0.));
#537 = VECTOR('',#538,1.);
#538 = DIRECTION('',(0.,0.,1.));
#539 = ORIENTED_EDGE('',*,*,#540,.T.);
#540 = EDGE_CURVE('',#533,#533,#541,.T.);
#541 = CIRCLE('',#542,3.25);
#542 = AXIS2_PLACEMENT_3D('',#543,#544,#545);
#543 = CARTESIAN_POINT('',(52.5,36.889799,2.));
#544 = DIRECTION('',(0.,0.,1.));
#545 = DIRECTION('',(1.,0.,0.));
#546 = ORIENTED_EDGE('',*,*,#532,.F.);
#547 = ORIENTED_EDGE('',*,*,#161,.F.);
#548 = CYLINDRICAL_SURFACE('',#549,3.25);
#549 = AXIS2_PLACEMENT_3D('',#550,#551,#552);
#550 = CARTESIAN_POINT('',(52.5,36.889799,0.));
#551 = DIRECTION('',(-0.,-0.,-1.));
#552 = DIRECTION('',(1.,0.,0.));
#553 = ADVANCED_FACE('',(#554),#572,.F.);
#554 = FACE_BOUND('',#555,.F.);
#555 = EDGE_LOOP('',(#556,#557,#565,#571));
#556 = ORIENTED_EDGE('',*,*,#257,.F.);
#557 = ORIENTED_EDGE('',*,*,#558,.T.);
#558 = EDGE_CURVE('',#249,#559,#561,.T.);
#559 = VERTEX_POINT('',#560);
#560 = CARTESIAN_POINT('',(73.245972,18.807819,91.124134));
#561 = LINE('',#562,#563);
#562 = CARTESIAN_POINT('',(73.245972,16.807819,91.124134));
#563 = VECTOR('',#564,1.);
#564 = DIRECTION('',(0.,1.,1.110223024625E-16));
#565 = ORIENTED_EDGE('',*,*,#566,.T.);
#566 = EDGE_CURVE('',#559,#180,#567,.T.);
#567 = LINE('',#568,#569);
#568 = CARTESIAN_POINT('',(73.245972,18.807819,91.124134));
#569 = VECTOR('',#570,1.);
#570 = DIRECTION('',(0.,1.110223024625E-16,-1.));
#571 = ORIENTED_EDGE('',*,*,#179,.F.);
#572 = PLANE('',#573);
#573 = AXIS2_PLACEMENT_3D('',#574,#575,#576);
#574 = CARTESIAN_POINT('',(73.245972,16.807819,91.124134));
#575 = DIRECTION('',(-1.,0.,0.));
#576 = DIRECTION('',(0.,1.110223024625E-16,-1.));
#577 = ADVANCED_FACE('',(#578),#597,.T.);
#578 = FACE_BOUND('',#579,.F.);
#579 = EDGE_LOOP('',(#580,#588,#595,#596));
#580 = ORIENTED_EDGE('',*,*,#581,.T.);
#581 = EDGE_CURVE('',#241,#582,#584,.T.);
#582 = VERTEX_POINT('',#583);
#583 = CARTESIAN_POINT('',(63.858239,18.807819,100.511867));
#584 = LINE('',#585,#586);
#585 = CARTESIAN_POINT('',(63.858239,16.807819,100.511867));
#586 = VECTOR('',#587,1.);
#587 = DIRECTION('',(0.,1.,1.110223024625E-16));
#588 = ORIENTED_EDGE('',*,*,#589,.T.);
#589 = EDGE_CURVE('',#582,#559,#590,.T.);
#590 = CIRCLE('',#591,9.387733);
#591 = AXIS2_PLACEMENT_3D('',#592,#593,#594);
#592 = CARTESIAN_POINT('',(63.858239,18.807819,91.124134));
#593 = DIRECTION('',(-0.,1.,1.110223024625E-16));
#594 = DIRECTION('',(1.,0.,0.));
#595 = ORIENTED_EDGE('',*,*,#558,.F.);
#596 = ORIENTED_EDGE('',*,*,#248,.F.);
#597 = CYLINDRICAL_SURFACE('',#598,9.387733);
#598 = AXIS2_PLACEMENT_3D('',#599,#600,#601);
#599 = CARTESIAN_POINT('',(63.858239,16.807819,91.124134));
#600 = DIRECTION('',(-0.,-1.,-1.110223024625E-16));
#601 = DIRECTION('',(1.,0.,0.));
#602 = ADVANCED_FACE('',(#603),#621,.F.);
#603 = FACE_BOUND('',#604,.F.);
#604 = EDGE_LOOP('',(#605,#613,#619,#620));
#605 = ORIENTED_EDGE('',*,*,#606,.T.);
#606 = EDGE_CURVE('',#232,#607,#609,.T.);
#607 = VERTEX_POINT('',#608);
#608 = CARTESIAN_POINT('',(-64.926494,18.807819,100.511867));
#609 = LINE('',#610,#611);
#610 = CARTESIAN_POINT('',(-64.926494,16.807819,100.511867));
#611 = VECTOR('',#612,1.);
#612 = DIRECTION('',(0.,1.,1.110223024625E-16));
#613 = ORIENTED_EDGE('',*,*,#614,.T.);
#614 = EDGE_CURVE('',#607,#582,#615,.T.);
#615 = LINE('',#616,#617);
#616 = CARTESIAN_POINT('',(-64.926494,18.807819,100.511867));
#617 = VECTOR('',#618,1.);
#618 = DIRECTION('',(1.,0.,0.));
#619 = ORIENTED_EDGE('',*,*,#581,.F.);
#620 = ORIENTED_EDGE('',*,*,#240,.F.);
#621 = PLANE('',#622);
#622 = AXIS2_PLACEMENT_3D('',#623,#624,#625);
#623 = CARTESIAN_POINT('',(-64.926494,16.807819,100.511867));
#624 = DIRECTION('',(0.,1.110223024625E-16,-1.));
#625 = DIRECTION('',(1.,0.,0.));
#626 = ADVANCED_FACE('',(#627),#639,.T.);
#627 = FACE_BOUND('',#628,.F.);
#628 = EDGE_LOOP('',(#629,#630,#637,#638));
#629 = ORIENTED_EDGE('',*,*,#402,.T.);
#630 = ORIENTED_EDGE('',*,*,#631,.T.);
#631 = EDGE_CURVE('',#395,#607,#632,.T.);
#632 = CIRCLE('',#633,7.000538);
#633 = AXIS2_PLACEMENT_3D('',#634,#635,#636);
#634 = CARTESIAN_POINT('',(-64.926494,18.807819,93.511329));
#635 = DIRECTION('',(-0.,1.,1.110223024625E-16));
#636 = DIRECTION('',(1.,0.,0.));
#637 = ORIENTED_EDGE('',*,*,#606,.F.);
#638 = ORIENTED_EDGE('',*,*,#231,.F.);
#639 = CYLINDRICAL_SURFACE('',#640,7.000538);
#640 = AXIS2_PLACEMENT_3D('',#641,#642,#643);
#641 = CARTESIAN_POINT('',(-64.926494,16.807819,93.511329));
#642 = DIRECTION('',(-0.,-1.,-1.110223024625E-16));
#643 = DIRECTION('',(1.,0.,0.));
#644 = ADVANCED_FACE('',(#645),#664,.F.);
#645 = FACE_BOUND('',#646,.T.);
#646 = EDGE_LOOP('',(#647,#655,#662,#663));
#647 = ORIENTED_EDGE('',*,*,#648,.T.);
#648 = EDGE_CURVE('',#266,#649,#651,.T.);
#649 = VERTEX_POINT('',#650);
#650 = CARTESIAN_POINT('',(-46.695305,18.807819,59.143699));
#651 = LINE('',#652,#653);
#652 = CARTESIAN_POINT('',(-46.695305,16.807819,59.143699));
#653 = VECTOR('',#654,1.);
#654 = DIRECTION('',(0.,1.,1.110223024625E-16));
#655 = ORIENTED_EDGE('',*,*,#656,.T.);
#656 = EDGE_CURVE('',#649,#649,#657,.T.);
#657 = CIRCLE('',#658,3.25);
#658 = AXIS2_PLACEMENT_3D('',#659,#660,#661);
#659 = CARTESIAN_POINT('',(-49.945305,18.807819,59.143699));
#660 = DIRECTION('',(-0.,1.,1.110223024625E-16));
#661 = DIRECTION('',(1.,0.,0.));
#662 = ORIENTED_EDGE('',*,*,#648,.F.);
#663 = ORIENTED_EDGE('',*,*,#265,.F.);
#664 = CYLINDRICAL_SURFACE('',#665,3.25);
#665 = AXIS2_PLACEMENT_3D('',#666,#667,#668);
#666 = CARTESIAN_POINT('',(-49.945305,16.807819,59.143699));
#667 = DIRECTION('',(-0.,-1.,-1.110223024625E-16));
#668 = DIRECTION('',(1.,0.,0.));
#669 = ADVANCED_FACE('',(#670),#696,.F.);
#670 = FACE_BOUND('',#671,.T.);
#671 = EDGE_LOOP('',(#672,#680,#689,#695));
#672 = ORIENTED_EDGE('',*,*,#673,.T.);
#673 = EDGE_CURVE('',#277,#674,#676,.T.);
#674 = VERTEX_POINT('',#675);
#675 = CARTESIAN_POINT('',(-24.57826513146,18.807819,33.293331080952));
#676 = LINE('',#677,#678);
#677 = CARTESIAN_POINT('',(-24.57826513146,16.807819,33.293331080952));
#678 = VECTOR('',#679,1.);
#679 = DIRECTION('',(0.,1.,1.110223024625E-16));
#680 = ORIENTED_EDGE('',*,*,#681,.T.);
#681 = EDGE_CURVE('',#674,#682,#684,.T.);
#682 = VERTEX_POINT('',#683);
#683 = CARTESIAN_POINT('',(24.021179452165,18.807819,32.74245430405));
#684 = CIRCLE('',#685,35.539737625494);
#685 = AXIS2_PLACEMENT_3D('',#686,#687,#688);
#686 = CARTESIAN_POINT('',(1.538995921725E-02,18.807819,58.94922864408)
  );
#687 = DIRECTION('',(-0.,1.,1.110223024625E-16));
#688 = DIRECTION('',(1.,0.,0.));
#689 = ORIENTED_EDGE('',*,*,#690,.F.);
#690 = EDGE_CURVE('',#279,#682,#691,.T.);
#691 = LINE('',#692,#693);
#692 = CARTESIAN_POINT('',(24.021179452165,16.807819,32.74245430405));
#693 = VECTOR('',#694,1.);
#694 = DIRECTION('',(0.,1.,1.110223024625E-16));
#695 = ORIENTED_EDGE('',*,*,#276,.F.);
#696 = CYLINDRICAL_SURFACE('',#697,35.539737625494);
#697 = AXIS2_PLACEMENT_3D('',#698,#699,#700);
#698 = CARTESIAN_POINT('',(1.538995921725E-02,16.807819,58.94922864408)
  );
#699 = DIRECTION('',(-0.,-1.,-1.110223024625E-16));
#700 = DIRECTION('',(1.,0.,0.));
#701 = ADVANCED_FACE('',(#702),#720,.T.);
#702 = FACE_BOUND('',#703,.T.);
#703 = EDGE_LOOP('',(#704,#712,#718,#719));
#704 = ORIENTED_EDGE('',*,*,#705,.T.);
#705 = EDGE_CURVE('',#288,#706,#708,.T.);
#706 = VERTEX_POINT('',#707);
#707 = CARTESIAN_POINT('',(-24.57826513146,18.807819,21.332619980574));
#708 = LINE('',#709,#710);
#709 = CARTESIAN_POINT('',(-24.57826513146,16.807819,21.332619980574));
#710 = VECTOR('',#711,1.);
#711 = DIRECTION('',(0.,1.,1.110223024625E-16));
#712 = ORIENTED_EDGE('',*,*,#713,.T.);
#713 = EDGE_CURVE('',#706,#674,#714,.T.);
#714 = LINE('',#715,#716);
#715 = CARTESIAN_POINT('',(-24.57826513146,18.807819,21.332619980574));
#716 = VECTOR('',#717,1.);
#717 = DIRECTION('',(0.,-1.110223024625E-16,1.));
#718 = ORIENTED_EDGE('',*,*,#673,.F.);
#719 = ORIENTED_EDGE('',*,*,#287,.F.);
#720 = PLANE('',#721);
#721 = AXIS2_PLACEMENT_3D('',#722,#723,#724);
#722 = CARTESIAN_POINT('',(-24.57826513146,16.807819,21.332619980574));
#723 = DIRECTION('',(1.,0.,0.));
#724 = DIRECTION('',(0.,-1.110223024625E-16,1.));
#725 = ADVANCED_FACE('',(#726),#744,.T.);
#726 = FACE_BOUND('',#727,.T.);
#727 = EDGE_LOOP('',(#728,#729,#737,#743));
#728 = ORIENTED_EDGE('',*,*,#690,.T.);
#729 = ORIENTED_EDGE('',*,*,#730,.T.);
#730 = EDGE_CURVE('',#682,#731,#733,.T.);
#731 = VERTEX_POINT('',#732);
#732 = CARTESIAN_POINT('',(24.021179452165,18.807819,19.943198980574));
#733 = LINE('',#734,#735);
#734 = CARTESIAN_POINT('',(24.021179452165,18.807819,32.74245430405));
#735 = VECTOR('',#736,1.);
#736 = DIRECTION('',(0.,1.110223024625E-16,-1.));
#737 = ORIENTED_EDGE('',*,*,#738,.F.);
#738 = EDGE_CURVE('',#313,#731,#739,.T.);
#739 = LINE('',#740,#741);
#740 = CARTESIAN_POINT('',(24.021179452165,16.807819,19.943198980574));
#741 = VECTOR('',#742,1.);
#742 = DIRECTION('',(0.,1.,1.110223024625E-16));
#743 = ORIENTED_EDGE('',*,*,#321,.F.);
#744 = PLANE('',#745);
#745 = AXIS2_PLACEMENT_3D('',#746,#747,#748);
#746 = CARTESIAN_POINT('',(24.021179452165,16.807819,32.74245430405));
#747 = DIRECTION('',(-1.,0.,0.));
#748 = DIRECTION('',(0.,1.110223024625E-16,-1.));
#749 = ADVANCED_FACE('',(#750),#769,.F.);
#750 = FACE_BOUND('',#751,.T.);
#751 = EDGE_LOOP('',(#752,#760,#767,#768));
#752 = ORIENTED_EDGE('',*,*,#753,.T.);
#753 = EDGE_CURVE('',#296,#754,#756,.T.);
#754 = VERTEX_POINT('',#755);
#755 = CARTESIAN_POINT('',(-16.77372713146,18.807819,13.528081980574));
#756 = LINE('',#757,#758);
#757 = CARTESIAN_POINT('',(-16.77372713146,16.807819,13.528081980574));
#758 = VECTOR('',#759,1.);
#759 = DIRECTION('',(0.,1.,1.110223024625E-16));
#760 = ORIENTED_EDGE('',*,*,#761,.T.);
#761 = EDGE_CURVE('',#754,#706,#762,.T.);
#762 = CIRCLE('',#763,7.804538);
#763 = AXIS2_PLACEMENT_3D('',#764,#765,#766);
#764 = CARTESIAN_POINT('',(-16.77372713146,18.807819,21.332619980574));
#765 = DIRECTION('',(-0.,1.,1.110223024625E-16));
#766 = DIRECTION('',(1.,0.,0.));
#767 = ORIENTED_EDGE('',*,*,#705,.F.);
#768 = ORIENTED_EDGE('',*,*,#295,.F.);
#769 = CYLINDRICAL_SURFACE('',#770,7.804538);
#770 = AXIS2_PLACEMENT_3D('',#771,#772,#773);
#771 = CARTESIAN_POINT('',(-16.77372713146,16.807819,21.332619980574));
#772 = DIRECTION('',(-0.,-1.,-1.110223024625E-16));
#773 = DIRECTION('',(1.,0.,0.));
#774 = ADVANCED_FACE('',(#775),#794,.F.);
#775 = FACE_BOUND('',#776,.T.);
#776 = EDGE_LOOP('',(#777,#778,#787,#793));
#777 = ORIENTED_EDGE('',*,*,#738,.T.);
#778 = ORIENTED_EDGE('',*,*,#779,.T.);
#779 = EDGE_CURVE('',#731,#780,#782,.T.);
#780 = VERTEX_POINT('',#781);
#781 = CARTESIAN_POINT('',(17.606062452165,18.807819,13.528081980574));
#782 = CIRCLE('',#783,6.415117);
#783 = AXIS2_PLACEMENT_3D('',#784,#785,#786);
#784 = CARTESIAN_POINT('',(17.606062452165,18.807819,19.943198980574));
#785 = DIRECTION('',(-0.,1.,1.110223024625E-16));
#786 = DIRECTION('',(1.,0.,0.));
#787 = ORIENTED_EDGE('',*,*,#788,.F.);
#788 = EDGE_CURVE('',#305,#780,#789,.T.);
#789 = LINE('',#790,#791);
#790 = CARTESIAN_POINT('',(17.606062452165,16.807819,13.528081980574));
#791 = VECTOR('',#792,1.);
#792 = DIRECTION('',(0.,1.,1.110223024625E-16));
#793 = ORIENTED_EDGE('',*,*,#312,.F.);
#794 = CYLINDRICAL_SURFACE('',#795,6.415117);
#795 = AXIS2_PLACEMENT_3D('',#796,#797,#798);
#796 = CARTESIAN_POINT('',(17.606062452165,16.807819,19.943198980574));
#797 = DIRECTION('',(-0.,-1.,-1.110223024625E-16));
#798 = DIRECTION('',(1.,0.,0.));
#799 = ADVANCED_FACE('',(#800),#811,.T.);
#800 = FACE_BOUND('',#801,.T.);
#801 = EDGE_LOOP('',(#802,#803,#809,#810));
#802 = ORIENTED_EDGE('',*,*,#788,.T.);
#803 = ORIENTED_EDGE('',*,*,#804,.T.);
#804 = EDGE_CURVE('',#780,#754,#805,.T.);
#805 = LINE('',#806,#807);
#806 = CARTESIAN_POINT('',(17.606062452165,18.807819,13.528081980574));
#807 = VECTOR('',#808,1.);
#808 = DIRECTION('',(-1.,0.,0.));
#809 = ORIENTED_EDGE('',*,*,#753,.F.);
#810 = ORIENTED_EDGE('',*,*,#304,.F.);
#811 = PLANE('',#812);
#812 = AXIS2_PLACEMENT_3D('',#813,#814,#815);
#813 = CARTESIAN_POINT('',(17.606062452165,16.807819,13.528081980574));
#814 = DIRECTION('',(0.,-1.110223024625E-16,1.));
#815 = DIRECTION('',(-1.,0.,0.));
#816 = ADVANCED_FACE('',(#817),#836,.F.);
#817 = FACE_BOUND('',#818,.T.);
#818 = EDGE_LOOP('',(#819,#827,#834,#835));
#819 = ORIENTED_EDGE('',*,*,#820,.T.);
#820 = EDGE_CURVE('',#330,#821,#823,.T.);
#821 = VERTEX_POINT('',#822);
#822 = CARTESIAN_POINT('',(53.304695,18.807819,59.143699));
#823 = LINE('',#824,#825);
#824 = CARTESIAN_POINT('',(53.304695,16.807819,59.143699));
#825 = VECTOR('',#826,1.);
#826 = DIRECTION('',(0.,1.,1.110223024625E-16));
#827 = ORIENTED_EDGE('',*,*,#828,.T.);
#828 = EDGE_CURVE('',#821,#821,#829,.T.);
#829 = CIRCLE('',#830,3.25);
#830 = AXIS2_PLACEMENT_3D('',#831,#832,#833);
#831 = CARTESIAN_POINT('',(50.054695,18.807819,59.143699));
#832 = DIRECTION('',(-0.,1.,1.110223024625E-16));
#833 = DIRECTION('',(1.,0.,0.));
#834 = ORIENTED_EDGE('',*,*,#820,.F.);
#835 = ORIENTED_EDGE('',*,*,#329,.F.);
#836 = CYLINDRICAL_SURFACE('',#837,3.25);
#837 = AXIS2_PLACEMENT_3D('',#838,#839,#840);
#838 = CARTESIAN_POINT('',(50.054695,16.807819,59.143699));
#839 = DIRECTION('',(-0.,-1.,-1.110223024625E-16));
#840 = DIRECTION('',(1.,0.,0.));
#841 = ADVANCED_FACE('',(#842,#850,#853),#856,.T.);
#842 = FACE_BOUND('',#843,.T.);
#843 = EDGE_LOOP('',(#844,#845,#846,#847,#848,#849));
#844 = ORIENTED_EDGE('',*,*,#424,.T.);
#845 = ORIENTED_EDGE('',*,*,#355,.T.);
#846 = ORIENTED_EDGE('',*,*,#371,.F.);
#847 = ORIENTED_EDGE('',*,*,#492,.T.);
#848 = ORIENTED_EDGE('',*,*,#473,.T.);
#849 = ORIENTED_EDGE('',*,*,#449,.T.);
#850 = FACE_BOUND('',#851,.T.);
#851 = EDGE_LOOP('',(#852));
#852 = ORIENTED_EDGE('',*,*,#515,.F.);
#853 = FACE_BOUND('',#854,.T.);
#854 = EDGE_LOOP('',(#855));
#855 = ORIENTED_EDGE('',*,*,#540,.F.);
#856 = PLANE('',#857);
#857 = AXIS2_PLACEMENT_3D('',#858,#859,#860);
#858 = CARTESIAN_POINT('',(0.306131718836,-16.97710427905,2.));
#859 = DIRECTION('',(0.,0.,1.));
#860 = DIRECTION('',(1.,0.,0.));
#861 = ADVANCED_FACE('',(#862,#870,#873,#881),#884,.T.);
#862 = FACE_BOUND('',#863,.T.);
#863 = EDGE_LOOP('',(#864,#865,#866,#867,#868,#869));
#864 = ORIENTED_EDGE('',*,*,#378,.F.);
#865 = ORIENTED_EDGE('',*,*,#394,.T.);
#866 = ORIENTED_EDGE('',*,*,#631,.T.);
#867 = ORIENTED_EDGE('',*,*,#614,.T.);
#868 = ORIENTED_EDGE('',*,*,#589,.T.);
#869 = ORIENTED_EDGE('',*,*,#566,.T.);
#870 = FACE_BOUND('',#871,.T.);
#871 = EDGE_LOOP('',(#872));
#872 = ORIENTED_EDGE('',*,*,#656,.F.);
#873 = FACE_BOUND('',#874,.T.);
#874 = EDGE_LOOP('',(#875,#876,#877,#878,#879,#880));
#875 = ORIENTED_EDGE('',*,*,#681,.F.);
#876 = ORIENTED_EDGE('',*,*,#713,.F.);
#877 = ORIENTED_EDGE('',*,*,#761,.F.);
#878 = ORIENTED_EDGE('',*,*,#804,.F.);
#879 = ORIENTED_EDGE('',*,*,#779,.F.);
#880 = ORIENTED_EDGE('',*,*,#730,.F.);
#881 = FACE_BOUND('',#882,.T.);
#882 = EDGE_LOOP('',(#883));
#883 = ORIENTED_EDGE('',*,*,#828,.F.);
#884 = PLANE('',#885);
#885 = AXIS2_PLACEMENT_3D('',#886,#887,#888);
#886 = CARTESIAN_POINT('',(0.306131718836,18.807819,37.784923279052));
#887 = DIRECTION('',(0.,1.,1.110223024625E-16));
#888 = DIRECTION('',(1.,0.,0.));
#889 = ( GEOMETRIC_REPRESENTATION_CONTEXT(3) 
GLOBAL_UNCERTAINTY_ASSIGNED_CONTEXT((#893)) GLOBAL_UNIT_ASSIGNED_CONTEXT
((#890,#891,#892)) REPRESENTATION_CONTEXT('Context #1',
  '3D Context with UNIT and UNCERTAINTY') );
#890 = ( LENGTH_UNIT() NAMED_UNIT(*) SI_UNIT(.MILLI.,.METRE.) );
#891 = ( NAMED_UNIT(*) PLANE_ANGLE_UNIT() SI_UNIT($,.RADIAN.) );
#892 = ( NAMED_UNIT(*) SI_UNIT($,.STERADIAN.) SOLID_ANGLE_UNIT() );
#893 = UNCERTAINTY_MEASURE_WITH_UNIT(LENGTH_MEASURE(1.E-07),#890,
  'distance_accuracy_value','confusion accuracy');
#894 = PRODUCT_RELATED_PRODUCT_CATEGORY('part',$,(#7));
#895 = MECHANICAL_DESIGN_GEOMETRIC_PRESENTATION_REPRESENTATION('',(#896)
  ,#889);
#896 = STYLED_ITEM('color',(#897),#15);
#897 = PRESENTATION_STYLE_ASSIGNMENT((#898,#904));
#898 = SURFACE_STYLE_USAGE(.BOTH.,#899);
#899 = SURFACE_SIDE_STYLE('',(#900));
#900 = SURFACE_STYLE_FILL_AREA(#901);
#901 = FILL_AREA_STYLE('',(#902));
#902 = FILL_AREA_STYLE_COLOUR('',#903);
#903 = COLOUR_RGB('',0.447058818107,0.474509808674,0.501960817233);
#904 = CURVE_STYLE('',#905,POSITIVE_LENGTH_MEASURE(0.1),#906);
#905 = DRAUGHTING_PRE_DEFINED_CURVE_FONT('continuous');
#906 = COLOUR_RGB('',9.803921802644E-02,9.803921802644E-02,
  9.803921802644E-02);
ENDSEC;
END-ISO-10303-21;
