ISO-10303-21;
HEADER;
FILE_DESCRIPTION(('FreeCAD Model'),'2;1');
FILE_NAME('Open CASCADE Shape Model','2026-01-25T20:10:05',('Author'),(
    ''),'Open CASCADE STEP processor 7.8','FreeCAD','Unknown');
FILE_SCHEMA(('AUTOMOTIVE_DESIGN { 1 0 10303 214 1 1 1 1 }'));
ENDSEC;
DATA;
#1 = APPLICATION_PROTOCOL_DEFINITION('international standard',
  'automotive_design',2000,#2);
#2 = APPLICATION_CONTEXT(
  'core data for automotive mechanical design processes');
#3 = SHAPE_DEFINITION_REPRESENTATION(#4,#10);
#4 = PRODUCT_DEFINITION_SHAPE('','',#5);
#5 = PRODUCT_DEFINITION('design','',#6,#9);
#6 = PRODUCT_DEFINITION_FORMATION('','',#7);
#7 = PRODUCT('Body','Body','',(#8));
#8 = PRODUCT_CONTEXT('',#2,'mechanical');
#9 = PRODUCT_DEFINITION_CONTEXT('part definition',#2,'design');
#10 = ADVANCED_BREP_SHAPE_REPRESENTATION('',(#11,#15),#749);
#11 = AXIS2_PLACEMENT_3D('',#12,#13,#14);
#12 = CARTESIAN_POINT('',(0.,0.,0.));
#13 = DIRECTION('',(0.,0.,1.));
#14 = DIRECTION('',(1.,0.,-0.));
#15 = MANIFOLD_SOLID_BREP('',#16);
#16 = CLOSED_SHELL('',(#17,#59,#103,#174,#218,#306,#330,#352,#376,#400,
    #425,#449,#467,#492,#517,#541,#573,#597,#615,#640,#657,#682,#707,
    #727));
#17 = ADVANCED_FACE('',(#18),#54,.F.);
#18 = FACE_BOUND('',#19,.F.);
#19 = EDGE_LOOP('',(#20,#31,#39,#48));
#20 = ORIENTED_EDGE('',*,*,#21,.F.);
#21 = EDGE_CURVE('',#22,#24,#26,.T.);
#22 = VERTEX_POINT('',#23);
#23 = CARTESIAN_POINT('',(73.072969,16.807819,-1.));
#24 = VERTEX_POINT('',#25);
#25 = CARTESIAN_POINT('',(73.072969,15.807819,-2.035408876557E-16));
#26 = CIRCLE('',#27,1.);
#27 = AXIS2_PLACEMENT_3D('',#28,#29,#30);
#28 = CARTESIAN_POINT('',(73.072969,15.807819,-1.));
#29 = DIRECTION('',(1.,0.,-0.));
#30 = DIRECTION('',(0.,-7.105427357601E-15,1.));
#31 = ORIENTED_EDGE('',*,*,#32,.F.);
#32 = EDGE_CURVE('',#33,#22,#35,.T.);
#33 = VERTEX_POINT('',#34);
#34 = CARTESIAN_POINT('',(-71.927031,16.807819,-1.));
#35 = LINE('',#36,#37);
#36 = CARTESIAN_POINT('',(73.072969,16.807819,-1.));
#37 = VECTOR('',#38,1.);
#38 = DIRECTION('',(1.,0.,0.));
#39 = ORIENTED_EDGE('',*,*,#40,.F.);
#40 = EDGE_CURVE('',#41,#33,#43,.T.);
#41 = VERTEX_POINT('',#42);
#42 = CARTESIAN_POINT('',(-71.927031,15.807819,-5.551115123126E-17));
#43 = CIRCLE('',#44,1.);
#44 = AXIS2_PLACEMENT_3D('',#45,#46,#47);
#45 = CARTESIAN_POINT('',(-71.927031,15.807819,-1.));
#46 = DIRECTION('',(-1.,0.,-0.));
#47 = DIRECTION('',(0.,1.,-2.442490654175E-15));
#48 = ORIENTED_EDGE('',*,*,#49,.F.);
#49 = EDGE_CURVE('',#24,#41,#50,.T.);
#50 = LINE('',#51,#52);
#51 = CARTESIAN_POINT('',(73.072969,15.807819,0.));
#52 = VECTOR('',#53,1.);
#53 = DIRECTION('',(-1.,0.,0.));
#54 = CYLINDRICAL_SURFACE('',#55,1.);
#55 = AXIS2_PLACEMENT_3D('',#56,#57,#58);
#56 = CARTESIAN_POINT('',(73.072969,15.807819,-1.));
#57 = DIRECTION('',(-1.,0.,0.));
#58 = DIRECTION('',(0.,0.,-1.));
#59 = ADVANCED_FACE('',(#60),#84,.T.);
#60 = FACE_BOUND('',#61,.T.);
#61 = EDGE_LOOP('',(#62,#63,#70,#79));
#62 = ORIENTED_EDGE('',*,*,#21,.F.);
#63 = ORIENTED_EDGE('',*,*,#64,.T.);
#64 = EDGE_CURVE('',#22,#65,#67,.T.);
#65 = VERTEX_POINT('',#66);
#66 = CARTESIAN_POINT('',(73.072969,19.807819,-1.));
#67 = B_SPLINE_CURVE_WITH_KNOTS('',1,(#68,#69),.UNSPECIFIED.,.F.,.F.,(2,
    2),(0.,1.),.PIECEWISE_BEZIER_KNOTS.);
#68 = CARTESIAN_POINT('',(73.072969,16.807819,-1.));
#69 = CARTESIAN_POINT('',(73.072969,19.807819,-1.));
#70 = ORIENTED_EDGE('',*,*,#71,.T.);
#71 = EDGE_CURVE('',#65,#72,#74,.T.);
#72 = VERTEX_POINT('',#73);
#73 = CARTESIAN_POINT('',(73.072969,15.807819,3.));
#74 = CIRCLE('',#75,4.);
#75 = AXIS2_PLACEMENT_3D('',#76,#77,#78);
#76 = CARTESIAN_POINT('',(73.072969,15.807819,-1.));
#77 = DIRECTION('',(1.,0.,0.));
#78 = DIRECTION('',(0.,-1.102553507615E-14,1.));
#79 = ORIENTED_EDGE('',*,*,#80,.F.);
#80 = EDGE_CURVE('',#24,#72,#81,.T.);
#81 = B_SPLINE_CURVE_WITH_KNOTS('',1,(#82,#83),.UNSPECIFIED.,.F.,.F.,(2,
    2),(0.,1.),.PIECEWISE_BEZIER_KNOTS.);
#82 = CARTESIAN_POINT('',(73.072969,15.807819,-1.33226762955E-15));
#83 = CARTESIAN_POINT('',(73.072969,15.807819,3.));
#84 = B_SPLINE_SURFACE_WITH_KNOTS('',8,1,(
    (#85,#86)
    ,(#87,#88)
    ,(#89,#90)
    ,(#91,#92)
    ,(#93,#94)
    ,(#95,#96)
    ,(#97,#98)
    ,(#99,#100)
    ,(#101,#102
    )),.UNSPECIFIED.,.F.,.F.,.F.,(9,9),(2,2),(0.,1.570796326795),(0.,1.)
  ,.PIECEWISE_BEZIER_KNOTS.);
#85 = CARTESIAN_POINT('',(73.072969,15.807819,-1.33226762955E-15));
#86 = CARTESIAN_POINT('',(73.072969,15.807819,3.));
#87 = CARTESIAN_POINT('',(73.072969,16.004168540849,-8.971778465453E-16)
  );
#88 = CARTESIAN_POINT('',(73.072969,16.593217163397,3.));
#89 = CARTESIAN_POINT('',(73.072969,16.200517267552,-4.406166491372E-02)
  );
#90 = CARTESIAN_POINT('',(73.072969,17.378615574017,2.823756844155));
#91 = CARTESIAN_POINT('',(73.072969,16.385335037383,-0.13217913108));
#92 = CARTESIAN_POINT('',(73.072968999999,18.11787193734,2.471272263486)
  );
#93 = CARTESIAN_POINT('',(73.072969,16.547073831513,-0.260745168487));
#94 = CARTESIAN_POINT('',(73.072969000001,18.76485402312,1.95703502312)
  );
#95 = CARTESIAN_POINT('',(73.072969,16.675639868919,-0.422483962617));
#96 = CARTESIAN_POINT('',(73.072968999999,19.279091263485,1.31005293734)
  );
#97 = CARTESIAN_POINT('',(73.072969,16.763757335086,-0.607301732448));
#98 = CARTESIAN_POINT('',(73.072969000001,19.631575844155,0.570796574017
    ));
#99 = CARTESIAN_POINT('',(73.072969,16.807819,-0.803650459151));
#100 = CARTESIAN_POINT('',(73.072969,19.807819,-0.214601836603));
#101 = CARTESIAN_POINT('',(73.072969,16.807819,-1.));
#102 = CARTESIAN_POINT('',(73.072969,19.807819,-1.));
#103 = ADVANCED_FACE('',(#104,#147,#158),#169,.F.);
#104 = FACE_BOUND('',#105,.F.);
#105 = EDGE_LOOP('',(#106,#107,#115,#124,#132,#141));
#106 = ORIENTED_EDGE('',*,*,#32,.T.);
#107 = ORIENTED_EDGE('',*,*,#108,.T.);
#108 = EDGE_CURVE('',#22,#109,#111,.T.);
#109 = VERTEX_POINT('',#110);
#110 = CARTESIAN_POINT('',(73.072969,16.807819,-23.178012));
#111 = LINE('',#112,#113);
#112 = CARTESIAN_POINT('',(73.072969,16.807819,66.807819));
#113 = VECTOR('',#114,1.);
#114 = DIRECTION('',(0.,1.110223024625E-16,-1.));
#115 = ORIENTED_EDGE('',*,*,#116,.T.);
#116 = EDGE_CURVE('',#109,#117,#119,.T.);
#117 = VERTEX_POINT('',#118);
#118 = CARTESIAN_POINT('',(63.0588,16.807819,-33.192181));
#119 = CIRCLE('',#120,10.014169);
#120 = AXIS2_PLACEMENT_3D('',#121,#122,#123);
#121 = CARTESIAN_POINT('',(63.0588,16.807819,-23.178012));
#122 = DIRECTION('',(-0.,1.,1.110223024625E-16));
#123 = DIRECTION('',(1.,0.,0.));
#124 = ORIENTED_EDGE('',*,*,#125,.T.);
#125 = EDGE_CURVE('',#117,#126,#128,.T.);
#126 = VERTEX_POINT('',#127);
#127 = CARTESIAN_POINT('',(-63.025452,16.807819,-33.192181));
#128 = LINE('',#129,#130);
#129 = CARTESIAN_POINT('',(63.0588,16.807819,-33.192181));
#130 = VECTOR('',#131,1.);
#131 = DIRECTION('',(-1.,0.,0.));
#132 = ORIENTED_EDGE('',*,*,#133,.T.);
#133 = EDGE_CURVE('',#126,#134,#136,.T.);
#134 = VERTEX_POINT('',#135);
#135 = CARTESIAN_POINT('',(-71.927031,16.807819,-24.290602));
#136 = CIRCLE('',#137,8.901579);
#137 = AXIS2_PLACEMENT_3D('',#138,#139,#140);
#138 = CARTESIAN_POINT('',(-63.025452,16.807819,-24.290602));
#139 = DIRECTION('',(-0.,1.,1.110223024625E-16));
#140 = DIRECTION('',(1.,0.,0.));
#141 = ORIENTED_EDGE('',*,*,#142,.T.);
#142 = EDGE_CURVE('',#134,#33,#143,.T.);
#143 = LINE('',#144,#145);
#144 = CARTESIAN_POINT('',(-71.927031,16.807819,-24.290602));
#145 = VECTOR('',#146,1.);
#146 = DIRECTION('',(0.,-1.110223024625E-16,1.));
#147 = FACE_BOUND('',#148,.F.);
#148 = EDGE_LOOP('',(#149));
#149 = ORIENTED_EDGE('',*,*,#150,.F.);
#150 = EDGE_CURVE('',#151,#151,#153,.T.);
#151 = VERTEX_POINT('',#152);
#152 = CARTESIAN_POINT('',(-49.25,16.807819,-18.08198));
#153 = CIRCLE('',#154,3.25);
#154 = AXIS2_PLACEMENT_3D('',#155,#156,#157);
#155 = CARTESIAN_POINT('',(-52.5,16.807819,-18.08198));
#156 = DIRECTION('',(-0.,1.,1.110223024625E-16));
#157 = DIRECTION('',(1.,0.,0.));
#158 = FACE_BOUND('',#159,.F.);
#159 = EDGE_LOOP('',(#160));
#160 = ORIENTED_EDGE('',*,*,#161,.F.);
#161 = EDGE_CURVE('',#162,#162,#164,.T.);
#162 = VERTEX_POINT('',#163);
#163 = CARTESIAN_POINT('',(55.75,16.807819,-18.08198));
#164 = CIRCLE('',#165,3.25);
#165 = AXIS2_PLACEMENT_3D('',#166,#167,#168);
#166 = CARTESIAN_POINT('',(52.5,16.807819,-18.08198));
#167 = DIRECTION('',(-0.,1.,1.110223024625E-16));
#168 = DIRECTION('',(1.,0.,0.));
#169 = PLANE('',#170);
#170 = AXIS2_PLACEMENT_3D('',#171,#172,#173);
#171 = CARTESIAN_POINT('',(0.153768316211,16.807819,24.912770819835));
#172 = DIRECTION('',(0.,1.,1.110223024625E-16));
#173 = DIRECTION('',(1.,0.,0.));
#174 = ADVANCED_FACE('',(#175),#199,.T.);
#175 = FACE_BOUND('',#176,.T.);
#176 = EDGE_LOOP('',(#177,#178,#185,#194));
#177 = ORIENTED_EDGE('',*,*,#40,.F.);
#178 = ORIENTED_EDGE('',*,*,#179,.T.);
#179 = EDGE_CURVE('',#41,#180,#182,.T.);
#180 = VERTEX_POINT('',#181);
#181 = CARTESIAN_POINT('',(-71.927031,15.807819,3.));
#182 = B_SPLINE_CURVE_WITH_KNOTS('',1,(#183,#184),.UNSPECIFIED.,.F.,.F.,
  (2,2),(0.,1.),.PIECEWISE_BEZIER_KNOTS.);
#183 = CARTESIAN_POINT('',(-71.927031,15.807819,-2.870799725029E-16));
#184 = CARTESIAN_POINT('',(-71.927031,15.807819,3.));
#185 = ORIENTED_EDGE('',*,*,#186,.T.);
#186 = EDGE_CURVE('',#180,#187,#189,.T.);
#187 = VERTEX_POINT('',#188);
#188 = CARTESIAN_POINT('',(-71.927031,19.807819,-1.));
#189 = CIRCLE('',#190,4.);
#190 = AXIS2_PLACEMENT_3D('',#191,#192,#193);
#191 = CARTESIAN_POINT('',(-71.927031,15.807819,-1.));
#192 = DIRECTION('',(-1.,0.,0.));
#193 = DIRECTION('',(0.,1.,-2.775557561563E-15));
#194 = ORIENTED_EDGE('',*,*,#195,.F.);
#195 = EDGE_CURVE('',#33,#187,#196,.T.);
#196 = B_SPLINE_CURVE_WITH_KNOTS('',1,(#197,#198),.UNSPECIFIED.,.F.,.F.,
  (2,2),(0.,1.),.PIECEWISE_BEZIER_KNOTS.);
#197 = CARTESIAN_POINT('',(-71.927031,16.807819,-1.));
#198 = CARTESIAN_POINT('',(-71.927031,19.807819,-1.));
#199 = B_SPLINE_SURFACE_WITH_KNOTS('',8,1,(
    (#200,#201)
    ,(#202,#203)
    ,(#204,#205)
    ,(#206,#207)
    ,(#208,#209)
    ,(#210,#211)
    ,(#212,#213)
    ,(#214,#215)
    ,(#216,#217
    )),.UNSPECIFIED.,.F.,.F.,.F.,(9,9),(2,2),(0.,1.570796326795),(0.,1.)
  ,.PIECEWISE_BEZIER_KNOTS.);
#200 = CARTESIAN_POINT('',(-71.927031,16.807819,-1.));
#201 = CARTESIAN_POINT('',(-71.927031,19.807819,-1.));
#202 = CARTESIAN_POINT('',(-71.927031,16.807819,-0.803650459151));
#203 = CARTESIAN_POINT('',(-71.927031,19.807819,-0.214601836603));
#204 = CARTESIAN_POINT('',(-71.927031,16.763757335086,-0.607301732448));
#205 = CARTESIAN_POINT('',(-71.927031,19.631575844155,0.570796574017));
#206 = CARTESIAN_POINT('',(-71.927031,16.67563986892,-0.422483962617));
#207 = CARTESIAN_POINT('',(-71.927031,19.279091263486,1.31005293734));
#208 = CARTESIAN_POINT('',(-71.927031,16.547073831513,-0.260745168487));
#209 = CARTESIAN_POINT('',(-71.927031,18.764854023119,1.95703502312));
#210 = CARTESIAN_POINT('',(-71.927031,16.385335037383,-0.13217913108));
#211 = CARTESIAN_POINT('',(-71.927031,18.11787193734,2.471272263486));
#212 = CARTESIAN_POINT('',(-71.927031,16.200517267552,
    -4.406166491373E-02));
#213 = CARTESIAN_POINT('',(-71.927031,17.378615574017,2.823756844155));
#214 = CARTESIAN_POINT('',(-71.927031,16.004168540849,2.309179129031E-16
    ));
#215 = CARTESIAN_POINT('',(-71.927031,16.593217163397,3.));
#216 = CARTESIAN_POINT('',(-71.927031,15.807819,-2.870799725029E-16));
#217 = CARTESIAN_POINT('',(-71.927031,15.807819,3.));
#218 = ADVANCED_FACE('',(#219,#279,#290),#301,.F.);
#219 = FACE_BOUND('',#220,.F.);
#220 = EDGE_LOOP('',(#221,#232,#240,#249,#255,#256,#264,#273));
#221 = ORIENTED_EDGE('',*,*,#222,.F.);
#222 = EDGE_CURVE('',#223,#225,#227,.T.);
#223 = VERTEX_POINT('',#224);
#224 = CARTESIAN_POINT('',(31.844304747889,-65.719528,0.));
#225 = VERTEX_POINT('',#226);
#226 = CARTESIAN_POINT('',(-30.69836674788,-65.719528,0.));
#227 = CIRCLE('',#228,35.);
#228 = AXIS2_PLACEMENT_3D('',#229,#230,#231);
#229 = CARTESIAN_POINT('',(0.572969,-50.,0.));
#230 = DIRECTION('',(0.,0.,1.));
#231 = DIRECTION('',(1.,0.,0.));
#232 = ORIENTED_EDGE('',*,*,#233,.T.);
#233 = EDGE_CURVE('',#223,#234,#236,.T.);
#234 = VERTEX_POINT('',#235);
#235 = CARTESIAN_POINT('',(59.532397,-65.719528,0.));
#236 = LINE('',#237,#238);
#237 = CARTESIAN_POINT('',(31.844304747889,-65.719528,0.));
#238 = VECTOR('',#239,1.);
#239 = DIRECTION('',(1.,0.,0.));
#240 = ORIENTED_EDGE('',*,*,#241,.T.);
#241 = EDGE_CURVE('',#234,#242,#244,.T.);
#242 = VERTEX_POINT('',#243);
#243 = CARTESIAN_POINT('',(73.072969,-52.178956,0.));
#244 = CIRCLE('',#245,13.540572);
#245 = AXIS2_PLACEMENT_3D('',#246,#247,#248);
#246 = CARTESIAN_POINT('',(59.532397,-52.178956,0.));
#247 = DIRECTION('',(0.,0.,1.));
#248 = DIRECTION('',(1.,0.,0.));
#249 = ORIENTED_EDGE('',*,*,#250,.T.);
#250 = EDGE_CURVE('',#242,#24,#251,.T.);
#251 = LINE('',#252,#253);
#252 = CARTESIAN_POINT('',(73.072969,-50.,0.));
#253 = VECTOR('',#254,1.);
#254 = DIRECTION('',(0.,1.,0.));
#255 = ORIENTED_EDGE('',*,*,#49,.T.);
#256 = ORIENTED_EDGE('',*,*,#257,.T.);
#257 = EDGE_CURVE('',#41,#258,#260,.T.);
#258 = VERTEX_POINT('',#259);
#259 = CARTESIAN_POINT('',(-71.927031,-58.350046,0.));
#260 = LINE('',#261,#262);
#261 = CARTESIAN_POINT('',(-71.927031,41.098421,0.));
#262 = VECTOR('',#263,1.);
#263 = DIRECTION('',(0.,-1.,0.));
#264 = ORIENTED_EDGE('',*,*,#265,.T.);
#265 = EDGE_CURVE('',#258,#266,#268,.T.);
#266 = VERTEX_POINT('',#267);
#267 = CARTESIAN_POINT('',(-64.557549,-65.719528,0.));
#268 = CIRCLE('',#269,7.369482);
#269 = AXIS2_PLACEMENT_3D('',#270,#271,#272);
#270 = CARTESIAN_POINT('',(-64.557549,-58.350046,0.));
#271 = DIRECTION('',(0.,0.,1.));
#272 = DIRECTION('',(1.,0.,0.));
#273 = ORIENTED_EDGE('',*,*,#274,.T.);
#274 = EDGE_CURVE('',#266,#225,#275,.T.);
#275 = LINE('',#276,#277);
#276 = CARTESIAN_POINT('',(-64.557549,-65.719528,0.));
#277 = VECTOR('',#278,1.);
#278 = DIRECTION('',(1.,-4.197046050726E-16,0.));
#279 = FACE_BOUND('',#280,.F.);
#280 = EDGE_LOOP('',(#281));
#281 = ORIENTED_EDGE('',*,*,#282,.F.);
#282 = EDGE_CURVE('',#283,#283,#285,.T.);
#283 = VERTEX_POINT('',#284);
#284 = CARTESIAN_POINT('',(-46.177031,-50.,0.));
#285 = CIRCLE('',#286,3.25);
#286 = AXIS2_PLACEMENT_3D('',#287,#288,#289);
#287 = CARTESIAN_POINT('',(-49.427031,-50.,0.));
#288 = DIRECTION('',(0.,0.,1.));
#289 = DIRECTION('',(1.,0.,0.));
#290 = FACE_BOUND('',#291,.F.);
#291 = EDGE_LOOP('',(#292));
#292 = ORIENTED_EDGE('',*,*,#293,.F.);
#293 = EDGE_CURVE('',#294,#294,#296,.T.);
#294 = VERTEX_POINT('',#295);
#295 = CARTESIAN_POINT('',(53.822969,-50.,0.));
#296 = CIRCLE('',#297,3.25);
#297 = AXIS2_PLACEMENT_3D('',#298,#299,#300);
#298 = CARTESIAN_POINT('',(50.572969,-50.,0.));
#299 = DIRECTION('',(0.,0.,1.));
#300 = DIRECTION('',(1.,0.,0.));
#301 = PLANE('',#302);
#302 = AXIS2_PLACEMENT_3D('',#303,#304,#305);
#303 = CARTESIAN_POINT('',(0.153768316211,-8.104951819835,0.));
#304 = DIRECTION('',(0.,0.,1.));
#305 = DIRECTION('',(1.,0.,0.));
#306 = ADVANCED_FACE('',(#307),#325,.T.);
#307 = FACE_BOUND('',#308,.T.);
#308 = EDGE_LOOP('',(#309,#310,#311,#319));
#309 = ORIENTED_EDGE('',*,*,#64,.F.);
#310 = ORIENTED_EDGE('',*,*,#108,.T.);
#311 = ORIENTED_EDGE('',*,*,#312,.T.);
#312 = EDGE_CURVE('',#109,#313,#315,.T.);
#313 = VERTEX_POINT('',#314);
#314 = CARTESIAN_POINT('',(73.072969,19.807819,-23.178012));
#315 = LINE('',#316,#317);
#316 = CARTESIAN_POINT('',(73.072969,16.807819,-23.178012));
#317 = VECTOR('',#318,1.);
#318 = DIRECTION('',(0.,1.,1.110223024625E-16));
#319 = ORIENTED_EDGE('',*,*,#320,.T.);
#320 = EDGE_CURVE('',#313,#65,#321,.T.);
#321 = LINE('',#322,#323);
#322 = CARTESIAN_POINT('',(73.072969,19.807819,66.807819));
#323 = VECTOR('',#324,1.);
#324 = DIRECTION('',(0.,-1.110223024625E-16,1.));
#325 = PLANE('',#326);
#326 = AXIS2_PLACEMENT_3D('',#327,#328,#329);
#327 = CARTESIAN_POINT('',(73.072969,18.307819,22.9043815));
#328 = DIRECTION('',(1.,0.,0.));
#329 = DIRECTION('',(0.,1.,1.110223024625E-16));
#330 = ADVANCED_FACE('',(#331),#347,.T.);
#331 = FACE_BOUND('',#332,.T.);
#332 = EDGE_LOOP('',(#333,#334,#340,#341));
#333 = ORIENTED_EDGE('',*,*,#71,.F.);
#334 = ORIENTED_EDGE('',*,*,#335,.F.);
#335 = EDGE_CURVE('',#187,#65,#336,.T.);
#336 = LINE('',#337,#338);
#337 = CARTESIAN_POINT('',(73.072969,19.807819,-1.));
#338 = VECTOR('',#339,1.);
#339 = DIRECTION('',(1.,0.,0.));
#340 = ORIENTED_EDGE('',*,*,#186,.F.);
#341 = ORIENTED_EDGE('',*,*,#342,.F.);
#342 = EDGE_CURVE('',#72,#180,#343,.T.);
#343 = LINE('',#344,#345);
#344 = CARTESIAN_POINT('',(73.072969,15.807819,3.));
#345 = VECTOR('',#346,1.);
#346 = DIRECTION('',(-1.,0.,0.));
#347 = CYLINDRICAL_SURFACE('',#348,4.);
#348 = AXIS2_PLACEMENT_3D('',#349,#350,#351);
#349 = CARTESIAN_POINT('',(73.072969,15.807819,-1.));
#350 = DIRECTION('',(-1.,0.,0.));
#351 = DIRECTION('',(0.,0.,-1.));
#352 = ADVANCED_FACE('',(#353),#371,.T.);
#353 = FACE_BOUND('',#354,.T.);
#354 = EDGE_LOOP('',(#355,#363,#364,#365));
#355 = ORIENTED_EDGE('',*,*,#356,.F.);
#356 = EDGE_CURVE('',#242,#357,#359,.T.);
#357 = VERTEX_POINT('',#358);
#358 = CARTESIAN_POINT('',(73.072969,-52.178956,3.));
#359 = LINE('',#360,#361);
#360 = CARTESIAN_POINT('',(73.072969,-52.178956,0.));
#361 = VECTOR('',#362,1.);
#362 = DIRECTION('',(0.,0.,1.));
#363 = ORIENTED_EDGE('',*,*,#250,.T.);
#364 = ORIENTED_EDGE('',*,*,#80,.T.);
#365 = ORIENTED_EDGE('',*,*,#366,.T.);
#366 = EDGE_CURVE('',#72,#357,#367,.T.);
#367 = LINE('',#368,#369);
#368 = CARTESIAN_POINT('',(73.072969,-50.,3.));
#369 = VECTOR('',#370,1.);
#370 = DIRECTION('',(0.,-1.,0.));
#371 = PLANE('',#372);
#372 = AXIS2_PLACEMENT_3D('',#373,#374,#375);
#373 = CARTESIAN_POINT('',(73.072969,-6.0965625,1.5));
#374 = DIRECTION('',(1.,0.,0.));
#375 = DIRECTION('',(0.,0.,1.));
#376 = ADVANCED_FACE('',(#377),#395,.F.);
#377 = FACE_BOUND('',#378,.F.);
#378 = EDGE_LOOP('',(#379,#380,#388,#394));
#379 = ORIENTED_EDGE('',*,*,#142,.F.);
#380 = ORIENTED_EDGE('',*,*,#381,.T.);
#381 = EDGE_CURVE('',#134,#382,#384,.T.);
#382 = VERTEX_POINT('',#383);
#383 = CARTESIAN_POINT('',(-71.927031,19.807819,-24.290602));
#384 = LINE('',#385,#386);
#385 = CARTESIAN_POINT('',(-71.927031,16.807819,-24.290602));
#386 = VECTOR('',#387,1.);
#387 = DIRECTION('',(0.,1.,1.110223024625E-16));
#388 = ORIENTED_EDGE('',*,*,#389,.T.);
#389 = EDGE_CURVE('',#382,#187,#390,.T.);
#390 = LINE('',#391,#392);
#391 = CARTESIAN_POINT('',(-71.927031,19.807819,-24.290602));
#392 = VECTOR('',#393,1.);
#393 = DIRECTION('',(0.,-1.110223024625E-16,1.));
#394 = ORIENTED_EDGE('',*,*,#195,.F.);
#395 = PLANE('',#396);
#396 = AXIS2_PLACEMENT_3D('',#397,#398,#399);
#397 = CARTESIAN_POINT('',(-71.927031,16.807819,-24.290602));
#398 = DIRECTION('',(1.,0.,0.));
#399 = DIRECTION('',(0.,-1.110223024625E-16,1.));
#400 = ADVANCED_FACE('',(#401),#420,.T.);
#401 = FACE_BOUND('',#402,.F.);
#402 = EDGE_LOOP('',(#403,#411,#418,#419));
#403 = ORIENTED_EDGE('',*,*,#404,.T.);
#404 = EDGE_CURVE('',#126,#405,#407,.T.);
#405 = VERTEX_POINT('',#406);
#406 = CARTESIAN_POINT('',(-63.025452,19.807819,-33.192181));
#407 = LINE('',#408,#409);
#408 = CARTESIAN_POINT('',(-63.025452,16.807819,-33.192181));
#409 = VECTOR('',#410,1.);
#410 = DIRECTION('',(0.,1.,1.110223024625E-16));
#411 = ORIENTED_EDGE('',*,*,#412,.T.);
#412 = EDGE_CURVE('',#405,#382,#413,.T.);
#413 = CIRCLE('',#414,8.901579);
#414 = AXIS2_PLACEMENT_3D('',#415,#416,#417);
#415 = CARTESIAN_POINT('',(-63.025452,19.807819,-24.290602));
#416 = DIRECTION('',(-0.,1.,1.110223024625E-16));
#417 = DIRECTION('',(1.,0.,0.));
#418 = ORIENTED_EDGE('',*,*,#381,.F.);
#419 = ORIENTED_EDGE('',*,*,#133,.F.);
#420 = CYLINDRICAL_SURFACE('',#421,8.901579);
#421 = AXIS2_PLACEMENT_3D('',#422,#423,#424);
#422 = CARTESIAN_POINT('',(-63.025452,16.807819,-24.290602));
#423 = DIRECTION('',(-0.,-1.,-1.110223024625E-16));
#424 = DIRECTION('',(1.,0.,0.));
#425 = ADVANCED_FACE('',(#426),#444,.F.);
#426 = FACE_BOUND('',#427,.F.);
#427 = EDGE_LOOP('',(#428,#436,#442,#443));
#428 = ORIENTED_EDGE('',*,*,#429,.T.);
#429 = EDGE_CURVE('',#117,#430,#432,.T.);
#430 = VERTEX_POINT('',#431);
#431 = CARTESIAN_POINT('',(63.0588,19.807819,-33.192181));
#432 = LINE('',#433,#434);
#433 = CARTESIAN_POINT('',(63.0588,16.807819,-33.192181));
#434 = VECTOR('',#435,1.);
#435 = DIRECTION('',(0.,1.,1.110223024625E-16));
#436 = ORIENTED_EDGE('',*,*,#437,.T.);
#437 = EDGE_CURVE('',#430,#405,#438,.T.);
#438 = LINE('',#439,#440);
#439 = CARTESIAN_POINT('',(63.0588,19.807819,-33.192181));
#440 = VECTOR('',#441,1.);
#441 = DIRECTION('',(-1.,0.,0.));
#442 = ORIENTED_EDGE('',*,*,#404,.F.);
#443 = ORIENTED_EDGE('',*,*,#125,.F.);
#444 = PLANE('',#445);
#445 = AXIS2_PLACEMENT_3D('',#446,#447,#448);
#446 = CARTESIAN_POINT('',(63.0588,16.807819,-33.192181));
#447 = DIRECTION('',(0.,-1.110223024625E-16,1.));
#448 = DIRECTION('',(-1.,0.,0.));
#449 = ADVANCED_FACE('',(#450),#462,.T.);
#450 = FACE_BOUND('',#451,.F.);
#451 = EDGE_LOOP('',(#452,#453,#460,#461));
#452 = ORIENTED_EDGE('',*,*,#312,.T.);
#453 = ORIENTED_EDGE('',*,*,#454,.T.);
#454 = EDGE_CURVE('',#313,#430,#455,.T.);
#455 = CIRCLE('',#456,10.014169);
#456 = AXIS2_PLACEMENT_3D('',#457,#458,#459);
#457 = CARTESIAN_POINT('',(63.0588,19.807819,-23.178012));
#458 = DIRECTION('',(-0.,1.,1.110223024625E-16));
#459 = DIRECTION('',(1.,0.,0.));
#460 = ORIENTED_EDGE('',*,*,#429,.F.);
#461 = ORIENTED_EDGE('',*,*,#116,.F.);
#462 = CYLINDRICAL_SURFACE('',#463,10.014169);
#463 = AXIS2_PLACEMENT_3D('',#464,#465,#466);
#464 = CARTESIAN_POINT('',(63.0588,16.807819,-23.178012));
#465 = DIRECTION('',(-0.,-1.,-1.110223024625E-16));
#466 = DIRECTION('',(1.,0.,0.));
#467 = ADVANCED_FACE('',(#468),#487,.F.);
#468 = FACE_BOUND('',#469,.T.);
#469 = EDGE_LOOP('',(#470,#478,#485,#486));
#470 = ORIENTED_EDGE('',*,*,#471,.T.);
#471 = EDGE_CURVE('',#151,#472,#474,.T.);
#472 = VERTEX_POINT('',#473);
#473 = CARTESIAN_POINT('',(-49.25,19.807819,-18.08198));
#474 = LINE('',#475,#476);
#475 = CARTESIAN_POINT('',(-49.25,16.807819,-18.08198));
#476 = VECTOR('',#477,1.);
#477 = DIRECTION('',(0.,1.,1.110223024625E-16));
#478 = ORIENTED_EDGE('',*,*,#479,.T.);
#479 = EDGE_CURVE('',#472,#472,#480,.T.);
#480 = CIRCLE('',#481,3.25);
#481 = AXIS2_PLACEMENT_3D('',#482,#483,#484);
#482 = CARTESIAN_POINT('',(-52.5,19.807819,-18.08198));
#483 = DIRECTION('',(-0.,1.,1.110223024625E-16));
#484 = DIRECTION('',(1.,0.,0.));
#485 = ORIENTED_EDGE('',*,*,#471,.F.);
#486 = ORIENTED_EDGE('',*,*,#150,.F.);
#487 = CYLINDRICAL_SURFACE('',#488,3.25);
#488 = AXIS2_PLACEMENT_3D('',#489,#490,#491);
#489 = CARTESIAN_POINT('',(-52.5,16.807819,-18.08198));
#490 = DIRECTION('',(-0.,-1.,-1.110223024625E-16));
#491 = DIRECTION('',(1.,0.,0.));
#492 = ADVANCED_FACE('',(#493),#512,.F.);
#493 = FACE_BOUND('',#494,.T.);
#494 = EDGE_LOOP('',(#495,#503,#510,#511));
#495 = ORIENTED_EDGE('',*,*,#496,.T.);
#496 = EDGE_CURVE('',#162,#497,#499,.T.);
#497 = VERTEX_POINT('',#498);
#498 = CARTESIAN_POINT('',(55.75,19.807819,-18.08198));
#499 = LINE('',#500,#501);
#500 = CARTESIAN_POINT('',(55.75,16.807819,-18.08198));
#501 = VECTOR('',#502,1.);
#502 = DIRECTION('',(0.,1.,1.110223024625E-16));
#503 = ORIENTED_EDGE('',*,*,#504,.T.);
#504 = EDGE_CURVE('',#497,#497,#505,.T.);
#505 = CIRCLE('',#506,3.25);
#506 = AXIS2_PLACEMENT_3D('',#507,#508,#509);
#507 = CARTESIAN_POINT('',(52.5,19.807819,-18.08198));
#508 = DIRECTION('',(-0.,1.,1.110223024625E-16));
#509 = DIRECTION('',(1.,0.,0.));
#510 = ORIENTED_EDGE('',*,*,#496,.F.);
#511 = ORIENTED_EDGE('',*,*,#161,.F.);
#512 = CYLINDRICAL_SURFACE('',#513,3.25);
#513 = AXIS2_PLACEMENT_3D('',#514,#515,#516);
#514 = CARTESIAN_POINT('',(52.5,16.807819,-18.08198));
#515 = DIRECTION('',(-0.,-1.,-1.110223024625E-16));
#516 = DIRECTION('',(1.,0.,0.));
#517 = ADVANCED_FACE('',(#518),#536,.F.);
#518 = FACE_BOUND('',#519,.F.);
#519 = EDGE_LOOP('',(#520,#521,#522,#530));
#520 = ORIENTED_EDGE('',*,*,#257,.F.);
#521 = ORIENTED_EDGE('',*,*,#179,.T.);
#522 = ORIENTED_EDGE('',*,*,#523,.T.);
#523 = EDGE_CURVE('',#180,#524,#526,.T.);
#524 = VERTEX_POINT('',#525);
#525 = CARTESIAN_POINT('',(-71.927031,-58.350046,3.));
#526 = LINE('',#527,#528);
#527 = CARTESIAN_POINT('',(-71.927031,41.098421,3.));
#528 = VECTOR('',#529,1.);
#529 = DIRECTION('',(0.,-1.,0.));
#530 = ORIENTED_EDGE('',*,*,#531,.F.);
#531 = EDGE_CURVE('',#258,#524,#532,.T.);
#532 = LINE('',#533,#534);
#533 = CARTESIAN_POINT('',(-71.927031,-58.350046,0.));
#534 = VECTOR('',#535,1.);
#535 = DIRECTION('',(0.,0.,1.));
#536 = PLANE('',#537);
#537 = AXIS2_PLACEMENT_3D('',#538,#539,#540);
#538 = CARTESIAN_POINT('',(-71.927031,41.098421,0.));
#539 = DIRECTION('',(1.,0.,0.));
#540 = DIRECTION('',(0.,-1.,0.));
#541 = ADVANCED_FACE('',(#542),#568,.F.);
#542 = FACE_BOUND('',#543,.T.);
#543 = EDGE_LOOP('',(#544,#552,#561,#567));
#544 = ORIENTED_EDGE('',*,*,#545,.T.);
#545 = EDGE_CURVE('',#223,#546,#548,.T.);
#546 = VERTEX_POINT('',#547);
#547 = CARTESIAN_POINT('',(31.844304747889,-65.719528,3.));
#548 = LINE('',#549,#550);
#549 = CARTESIAN_POINT('',(31.844304747889,-65.719528,0.));
#550 = VECTOR('',#551,1.);
#551 = DIRECTION('',(0.,0.,1.));
#552 = ORIENTED_EDGE('',*,*,#553,.T.);
#553 = EDGE_CURVE('',#546,#554,#556,.T.);
#554 = VERTEX_POINT('',#555);
#555 = CARTESIAN_POINT('',(-30.69836674788,-65.719528,3.));
#556 = CIRCLE('',#557,35.);
#557 = AXIS2_PLACEMENT_3D('',#558,#559,#560);
#558 = CARTESIAN_POINT('',(0.572969,-50.,3.));
#559 = DIRECTION('',(0.,0.,1.));
#560 = DIRECTION('',(1.,0.,0.));
#561 = ORIENTED_EDGE('',*,*,#562,.F.);
#562 = EDGE_CURVE('',#225,#554,#563,.T.);
#563 = LINE('',#564,#565);
#564 = CARTESIAN_POINT('',(-30.69836674788,-65.719528,0.));
#565 = VECTOR('',#566,1.);
#566 = DIRECTION('',(0.,0.,1.));
#567 = ORIENTED_EDGE('',*,*,#222,.F.);
#568 = CYLINDRICAL_SURFACE('',#569,35.);
#569 = AXIS2_PLACEMENT_3D('',#570,#571,#572);
#570 = CARTESIAN_POINT('',(0.572969,-50.,0.));
#571 = DIRECTION('',(-0.,-0.,-1.));
#572 = DIRECTION('',(1.,0.,0.));
#573 = ADVANCED_FACE('',(#574),#592,.F.);
#574 = FACE_BOUND('',#575,.F.);
#575 = EDGE_LOOP('',(#576,#584,#590,#591));
#576 = ORIENTED_EDGE('',*,*,#577,.T.);
#577 = EDGE_CURVE('',#266,#578,#580,.T.);
#578 = VERTEX_POINT('',#579);
#579 = CARTESIAN_POINT('',(-64.557549,-65.719528,3.));
#580 = LINE('',#581,#582);
#581 = CARTESIAN_POINT('',(-64.557549,-65.719528,0.));
#582 = VECTOR('',#583,1.);
#583 = DIRECTION('',(0.,0.,1.));
#584 = ORIENTED_EDGE('',*,*,#585,.T.);
#585 = EDGE_CURVE('',#578,#554,#586,.T.);
#586 = LINE('',#587,#588);
#587 = CARTESIAN_POINT('',(-64.557549,-65.719528,3.));
#588 = VECTOR('',#589,1.);
#589 = DIRECTION('',(1.,-4.197046050726E-16,0.));
#590 = ORIENTED_EDGE('',*,*,#562,.F.);
#591 = ORIENTED_EDGE('',*,*,#274,.F.);
#592 = PLANE('',#593);
#593 = AXIS2_PLACEMENT_3D('',#594,#595,#596);
#594 = CARTESIAN_POINT('',(-64.557549,-65.719528,0.));
#595 = DIRECTION('',(4.197046050726E-16,1.,0.));
#596 = DIRECTION('',(1.,-4.197046050726E-16,0.));
#597 = ADVANCED_FACE('',(#598),#610,.T.);
#598 = FACE_BOUND('',#599,.F.);
#599 = EDGE_LOOP('',(#600,#601,#608,#609));
#600 = ORIENTED_EDGE('',*,*,#531,.T.);
#601 = ORIENTED_EDGE('',*,*,#602,.T.);
#602 = EDGE_CURVE('',#524,#578,#603,.T.);
#603 = CIRCLE('',#604,7.369482);
#604 = AXIS2_PLACEMENT_3D('',#605,#606,#607);
#605 = CARTESIAN_POINT('',(-64.557549,-58.350046,3.));
#606 = DIRECTION('',(0.,0.,1.));
#607 = DIRECTION('',(1.,0.,0.));
#608 = ORIENTED_EDGE('',*,*,#577,.F.);
#609 = ORIENTED_EDGE('',*,*,#265,.F.);
#610 = CYLINDRICAL_SURFACE('',#611,7.369482);
#611 = AXIS2_PLACEMENT_3D('',#612,#613,#614);
#612 = CARTESIAN_POINT('',(-64.557549,-58.350046,0.));
#613 = DIRECTION('',(-0.,-0.,-1.));
#614 = DIRECTION('',(1.,0.,0.));
#615 = ADVANCED_FACE('',(#616),#635,.T.);
#616 = FACE_BOUND('',#617,.F.);
#617 = EDGE_LOOP('',(#618,#626,#633,#634));
#618 = ORIENTED_EDGE('',*,*,#619,.T.);
#619 = EDGE_CURVE('',#234,#620,#622,.T.);
#620 = VERTEX_POINT('',#621);
#621 = CARTESIAN_POINT('',(59.532397,-65.719528,3.));
#622 = LINE('',#623,#624);
#623 = CARTESIAN_POINT('',(59.532397,-65.719528,0.));
#624 = VECTOR('',#625,1.);
#625 = DIRECTION('',(0.,0.,1.));
#626 = ORIENTED_EDGE('',*,*,#627,.T.);
#627 = EDGE_CURVE('',#620,#357,#628,.T.);
#628 = CIRCLE('',#629,13.540572);
#629 = AXIS2_PLACEMENT_3D('',#630,#631,#632);
#630 = CARTESIAN_POINT('',(59.532397,-52.178956,3.));
#631 = DIRECTION('',(0.,0.,1.));
#632 = DIRECTION('',(1.,0.,0.));
#633 = ORIENTED_EDGE('',*,*,#356,.F.);
#634 = ORIENTED_EDGE('',*,*,#241,.F.);
#635 = CYLINDRICAL_SURFACE('',#636,13.540572);
#636 = AXIS2_PLACEMENT_3D('',#637,#638,#639);
#637 = CARTESIAN_POINT('',(59.532397,-52.178956,0.));
#638 = DIRECTION('',(-0.,-0.,-1.));
#639 = DIRECTION('',(1.,0.,0.));
#640 = ADVANCED_FACE('',(#641),#652,.F.);
#641 = FACE_BOUND('',#642,.F.);
#642 = EDGE_LOOP('',(#643,#644,#650,#651));
#643 = ORIENTED_EDGE('',*,*,#545,.T.);
#644 = ORIENTED_EDGE('',*,*,#645,.T.);
#645 = EDGE_CURVE('',#546,#620,#646,.T.);
#646 = LINE('',#647,#648);
#647 = CARTESIAN_POINT('',(31.844304747889,-65.719528,3.));
#648 = VECTOR('',#649,1.);
#649 = DIRECTION('',(1.,0.,0.));
#650 = ORIENTED_EDGE('',*,*,#619,.F.);
#651 = ORIENTED_EDGE('',*,*,#233,.F.);
#652 = PLANE('',#653);
#653 = AXIS2_PLACEMENT_3D('',#654,#655,#656);
#654 = CARTESIAN_POINT('',(31.844304747889,-65.719528,0.));
#655 = DIRECTION('',(0.,1.,0.));
#656 = DIRECTION('',(1.,0.,0.));
#657 = ADVANCED_FACE('',(#658),#677,.F.);
#658 = FACE_BOUND('',#659,.T.);
#659 = EDGE_LOOP('',(#660,#668,#675,#676));
#660 = ORIENTED_EDGE('',*,*,#661,.T.);
#661 = EDGE_CURVE('',#283,#662,#664,.T.);
#662 = VERTEX_POINT('',#663);
#663 = CARTESIAN_POINT('',(-46.177031,-50.,3.));
#664 = LINE('',#665,#666);
#665 = CARTESIAN_POINT('',(-46.177031,-50.,0.));
#666 = VECTOR('',#667,1.);
#667 = DIRECTION('',(0.,0.,1.));
#668 = ORIENTED_EDGE('',*,*,#669,.T.);
#669 = EDGE_CURVE('',#662,#662,#670,.T.);
#670 = CIRCLE('',#671,3.25);
#671 = AXIS2_PLACEMENT_3D('',#672,#673,#674);
#672 = CARTESIAN_POINT('',(-49.427031,-50.,3.));
#673 = DIRECTION('',(0.,0.,1.));
#674 = DIRECTION('',(1.,0.,0.));
#675 = ORIENTED_EDGE('',*,*,#661,.F.);
#676 = ORIENTED_EDGE('',*,*,#282,.F.);
#677 = CYLINDRICAL_SURFACE('',#678,3.25);
#678 = AXIS2_PLACEMENT_3D('',#679,#680,#681);
#679 = CARTESIAN_POINT('',(-49.427031,-50.,0.));
#680 = DIRECTION('',(-0.,-0.,-1.));
#681 = DIRECTION('',(1.,0.,0.));
#682 = ADVANCED_FACE('',(#683),#702,.F.);
#683 = FACE_BOUND('',#684,.T.);
#684 = EDGE_LOOP('',(#685,#693,#700,#701));
#685 = ORIENTED_EDGE('',*,*,#686,.T.);
#686 = EDGE_CURVE('',#294,#687,#689,.T.);
#687 = VERTEX_POINT('',#688);
#688 = CARTESIAN_POINT('',(53.822969,-50.,3.));
#689 = LINE('',#690,#691);
#690 = CARTESIAN_POINT('',(53.822969,-50.,0.));
#691 = VECTOR('',#692,1.);
#692 = DIRECTION('',(0.,0.,1.));
#693 = ORIENTED_EDGE('',*,*,#694,.T.);
#694 = EDGE_CURVE('',#687,#687,#695,.T.);
#695 = CIRCLE('',#696,3.25);
#696 = AXIS2_PLACEMENT_3D('',#697,#698,#699);
#697 = CARTESIAN_POINT('',(50.572969,-50.,3.));
#698 = DIRECTION('',(0.,0.,1.));
#699 = DIRECTION('',(1.,0.,0.));
#700 = ORIENTED_EDGE('',*,*,#686,.F.);
#701 = ORIENTED_EDGE('',*,*,#293,.F.);
#702 = CYLINDRICAL_SURFACE('',#703,3.25);
#703 = AXIS2_PLACEMENT_3D('',#704,#705,#706);
#704 = CARTESIAN_POINT('',(50.572969,-50.,0.));
#705 = DIRECTION('',(-0.,-0.,-1.));
#706 = DIRECTION('',(1.,0.,0.));
#707 = ADVANCED_FACE('',(#708,#716,#719),#722,.T.);
#708 = FACE_BOUND('',#709,.T.);
#709 = EDGE_LOOP('',(#710,#711,#712,#713,#714,#715));
#710 = ORIENTED_EDGE('',*,*,#335,.T.);
#711 = ORIENTED_EDGE('',*,*,#320,.F.);
#712 = ORIENTED_EDGE('',*,*,#454,.T.);
#713 = ORIENTED_EDGE('',*,*,#437,.T.);
#714 = ORIENTED_EDGE('',*,*,#412,.T.);
#715 = ORIENTED_EDGE('',*,*,#389,.T.);
#716 = FACE_BOUND('',#717,.T.);
#717 = EDGE_LOOP('',(#718));
#718 = ORIENTED_EDGE('',*,*,#479,.F.);
#719 = FACE_BOUND('',#720,.T.);
#720 = EDGE_LOOP('',(#721));
#721 = ORIENTED_EDGE('',*,*,#504,.F.);
#722 = PLANE('',#723);
#723 = AXIS2_PLACEMENT_3D('',#724,#725,#726);
#724 = CARTESIAN_POINT('',(0.153768316211,19.807819,24.912770819835));
#725 = DIRECTION('',(0.,1.,1.110223024625E-16));
#726 = DIRECTION('',(1.,0.,0.));
#727 = ADVANCED_FACE('',(#728,#738,#741),#744,.T.);
#728 = FACE_BOUND('',#729,.T.);
#729 = EDGE_LOOP('',(#730,#731,#732,#733,#734,#735,#736,#737));
#730 = ORIENTED_EDGE('',*,*,#553,.F.);
#731 = ORIENTED_EDGE('',*,*,#645,.T.);
#732 = ORIENTED_EDGE('',*,*,#627,.T.);
#733 = ORIENTED_EDGE('',*,*,#366,.F.);
#734 = ORIENTED_EDGE('',*,*,#342,.T.);
#735 = ORIENTED_EDGE('',*,*,#523,.T.);
#736 = ORIENTED_EDGE('',*,*,#602,.T.);
#737 = ORIENTED_EDGE('',*,*,#585,.T.);
#738 = FACE_BOUND('',#739,.T.);
#739 = EDGE_LOOP('',(#740));
#740 = ORIENTED_EDGE('',*,*,#669,.F.);
#741 = FACE_BOUND('',#742,.T.);
#742 = EDGE_LOOP('',(#743));
#743 = ORIENTED_EDGE('',*,*,#694,.F.);
#744 = PLANE('',#745);
#745 = AXIS2_PLACEMENT_3D('',#746,#747,#748);
#746 = CARTESIAN_POINT('',(0.153768316211,-8.104951819835,3.));
#747 = DIRECTION('',(0.,0.,1.));
#748 = DIRECTION('',(1.,0.,0.));
#749 = ( GEOMETRIC_REPRESENTATION_CONTEXT(3) 
GLOBAL_UNCERTAINTY_ASSIGNED_CONTEXT((#753)) GLOBAL_UNIT_ASSIGNED_CONTEXT
((#750,#751,#752)) REPRESENTATION_CONTEXT('Context #1',
  '3D Context with UNIT and UNCERTAINTY') );
#750 = ( LENGTH_UNIT() NAMED_UNIT(*) SI_UNIT(.MILLI.,.METRE.) );
#751 = ( NAMED_UNIT(*) PLANE_ANGLE_UNIT() SI_UNIT($,.RADIAN.) );
#752 = ( NAMED_UNIT(*) SI_UNIT($,.STERADIAN.) SOLID_ANGLE_UNIT() );
#753 = UNCERTAINTY_MEASURE_WITH_UNIT(LENGTH_MEASURE(1.E-07),#750,
  'distance_accuracy_value','confusion accuracy');
#754 = PRODUCT_RELATED_PRODUCT_CATEGORY('part',$,(#7));
#755 = MECHANICAL_DESIGN_GEOMETRIC_PRESENTATION_REPRESENTATION('',(#756)
  ,#749);
#756 = STYLED_ITEM('color',(#757),#15);
#757 = PRESENTATION_STYLE_ASSIGNMENT((#758,#764));
#758 = SURFACE_STYLE_USAGE(.BOTH.,#759);
#759 = SURFACE_SIDE_STYLE('',(#760));
#760 = SURFACE_STYLE_FILL_AREA(#761);
#761 = FILL_AREA_STYLE('',(#762));
#762 = FILL_AREA_STYLE_COLOUR('',#763);
#763 = COLOUR_RGB('',0.447058818107,0.474509808674,0.501960817233);
#764 = CURVE_STYLE('',#765,POSITIVE_LENGTH_MEASURE(0.1),#766);
#765 = DRAUGHTING_PRE_DEFINED_CURVE_FONT('continuous');
#766 = COLOUR_RGB('',9.803921802644E-02,9.803921802644E-02,
  9.803921802644E-02);
ENDSEC;
END-ISO-10303-21;
